<svg width="34" height="34" viewBox="0 0 34 34" fill="none" xmlns="http://www.w3.org/2000/svg">
<path opacity="0.3" d="M29.084 17.0002C29.084 18.9805 28.6236 20.8522 27.805 22.513C27.6189 22.8903 27.4144 23.2566 27.1927 23.611C27.1924 23.611 27.1924 23.611 27.1924 23.611C27.1924 23.6112 27.1924 23.6112 27.1924 23.6115C26.4355 24.8205 25.4771 25.8884 24.3649 26.7678C24.0615 27.0075 23.7468 27.2331 23.4216 27.4437C23.3029 27.5208 23.1829 27.5956 23.0613 27.6686C21.9144 28.3568 20.6472 28.8629 19.2991 29.1465C19.2506 29.1568 19.2019 29.1667 19.1529 29.1763C19.1505 29.1768 19.1481 29.1773 19.1457 29.1777C19.1063 29.1855 19.0666 29.1932 19.027 29.2004C19.0153 29.2028 19.0033 29.205 18.9916 29.2071C18.9474 29.2151 18.9032 29.223 18.8588 29.2307C18.8255 29.2365 18.7923 29.242 18.7589 29.2473C18.7548 29.248 18.7508 29.2488 18.7467 29.2492C18.7273 29.2526 18.7077 29.2557 18.6882 29.2586C18.6561 29.2639 18.6244 29.2687 18.5923 29.2736C18.5742 29.2762 18.556 29.2789 18.5376 29.2815C18.5073 29.2861 18.4772 29.2902 18.4468 29.2943C18.4225 29.2976 18.3981 29.301 18.3737 29.3041C18.3443 29.308 18.3149 29.3118 18.2856 29.3155C18.2607 29.3186 18.2359 29.3215 18.2108 29.3244C18.0782 29.34 17.9448 29.3535 17.8108 29.3648C17.7647 29.3687 17.7186 29.3723 17.6722 29.3756C17.6665 29.3761 17.661 29.3766 17.6553 29.3768C17.6058 29.3804 17.5561 29.3838 17.5064 29.3867C17.5028 29.3869 17.499 29.3872 17.4952 29.3874C17.4591 29.3894 17.423 29.3913 17.3869 29.3932C17.3695 29.3942 17.3521 29.3949 17.3346 29.3956L17.3203 29.3963C17.2804 29.398 17.2402 29.3997 17.2003 29.4012C17.1645 29.4024 17.1287 29.4033 17.0928 29.4043C17.0739 29.405 17.0551 29.4055 17.0362 29.4057C17.0357 29.4055 17.035 29.4055 17.0345 29.4057C17.0295 29.4057 17.0245 29.406 17.0195 29.406C16.9772 29.4069 16.9346 29.4074 16.8921 29.4079C16.851 29.4084 16.8097 29.4086 16.7686 29.4086C16.6661 29.4086 16.5638 29.4074 16.4618 29.4048C16.4295 29.404 16.3975 29.4031 16.3655 29.4021C16.3552 29.4019 16.345 29.4014 16.3349 29.4009C16.3063 29.3999 16.2776 29.399 16.2489 29.3978C16.2145 29.3963 16.1801 29.3947 16.1457 29.393C16.0645 29.3889 15.9837 29.3841 15.9029 29.3783C15.8528 29.3749 15.8031 29.3711 15.7531 29.367C15.7197 29.3643 15.6862 29.3614 15.653 29.3583C15.6215 29.3557 15.5899 29.3525 15.5586 29.3494C15.5558 29.3491 15.5531 29.3489 15.5505 29.3487C15.5288 29.3465 15.5073 29.3443 15.4858 29.3419C15.4408 29.3374 15.3962 29.3325 15.3515 29.3272C15.3226 29.3241 15.2939 29.3207 15.2655 29.3171C15.2459 29.3147 15.2265 29.3123 15.2072 29.3097C15.1799 29.3063 15.1529 29.3027 15.1257 29.2991C15.1252 29.2988 15.1247 29.2988 15.1243 29.2988C15.0899 29.2943 15.0557 29.2894 15.0213 29.2846C14.9804 29.2789 14.9398 29.2728 14.8994 29.2666C14.8631 29.2608 14.8268 29.2553 14.7907 29.2492C14.606 29.2194 14.423 29.1852 14.2412 29.1469C14.2058 29.1395 14.1702 29.132 14.1348 29.1241C14.1329 29.1238 14.131 29.1233 14.1294 29.1229C14.0983 29.1161 14.0675 29.1091 14.0366 29.1022C14.0288 29.1005 14.0211 29.0988 14.0135 29.0969C13.981 29.0894 13.9482 29.0817 13.916 29.074C13.8799 29.0653 13.8441 29.0567 13.8082 29.0478C13.7791 29.0405 13.7499 29.0331 13.7208 29.0256C13.6424 29.0056 13.5645 28.9849 13.4869 28.9633C13.4515 28.9534 13.4161 28.9433 13.381 28.9332C13.3457 28.9231 13.3103 28.9127 13.2752 28.9021C13.2398 28.8918 13.2047 28.8812 13.1696 28.8703C13.138 28.8607 13.1067 28.8508 13.0752 28.841C13.0365 28.8287 12.998 28.8164 12.9598 28.8036C12.9345 28.7955 12.9089 28.787 12.8836 28.7784C12.8659 28.7726 12.8482 28.7668 12.8305 28.7606C12.8042 28.7516 12.778 28.7427 12.7519 28.7336C12.7173 28.7216 12.6829 28.7095 12.6485 28.697C12.6141 28.6847 12.5796 28.6724 12.5455 28.6597C12.5111 28.6472 12.4769 28.6344 12.4427 28.6214C12.4088 28.6087 12.3746 28.5957 12.3407 28.5824C12.3175 28.5735 12.2946 28.5644 12.2714 28.5552C12.2542 28.5485 12.2368 28.5415 12.2196 28.5345C12.1895 28.5227 12.1596 28.5104 12.13 28.4982C12.1202 28.4943 12.1104 28.4902 12.1008 28.4861C12.0796 28.4775 12.0583 28.4685 12.037 28.4596C12.0017 28.445 11.9663 28.43 11.9312 28.4146C11.8996 28.4011 11.8681 28.3874 11.8366 28.3735C11.7979 28.3566 11.7592 28.3393 11.7207 28.3217C11.6961 28.3106 11.6715 28.2993 11.6471 28.288C11.5126 28.2261 11.379 28.1616 11.2471 28.0944C11.2146 28.0783 11.1826 28.0617 11.1504 28.0451C11.1183 28.0285 11.0863 28.0116 11.0543 27.9948C11.0223 27.9779 10.9905 27.9608 10.9587 27.9437C10.927 27.9267 10.8952 27.9093 10.8636 27.8917C10.8321 27.8744 10.8006 27.8568 10.769 27.839C10.7611 27.8347 10.753 27.8301 10.7451 27.8255C10.7291 27.8166 10.7134 27.8075 10.6973 27.7983C10.6833 27.7906 10.6694 27.7825 10.6553 27.7743C10.6484 27.7702 10.6414 27.7661 10.6345 27.7622C10.6006 27.7427 10.5669 27.723 10.5332 27.7028C10.5272 27.6994 10.5213 27.6958 10.5155 27.6922C10.5081 27.6878 10.5005 27.6833 10.4931 27.6789C10.4837 27.6734 10.4744 27.6679 10.4653 27.6621C10.4522 27.6546 10.4393 27.6467 10.4264 27.6387C10.3922 27.6178 10.3581 27.5968 10.3239 27.5757C10.2866 27.5528 10.2494 27.5294 10.2123 27.5058C10.2056 27.5015 10.1987 27.4972 10.192 27.4928C10.1767 27.4832 10.1612 27.4734 10.1459 27.4635C10.1175 27.4452 10.0895 27.4269 10.0616 27.4084C10.0498 27.4009 10.0381 27.3934 10.0267 27.3855C10.0028 27.3698 9.97912 27.3542 9.95547 27.3383C9.94758 27.333 9.9397 27.3277 9.93205 27.3224C9.92919 27.3207 9.92632 27.3188 9.92345 27.3166C9.89956 27.3005 9.87566 27.2844 9.85177 27.268C9.84174 27.2613 9.83194 27.2545 9.82214 27.2475C9.80924 27.2389 9.79634 27.23 9.78344 27.2208C9.77675 27.216 9.76982 27.2114 9.76313 27.2066C9.73422 27.1864 9.70531 27.1659 9.6764 27.1455C9.65346 27.1291 9.63028 27.1127 9.60758 27.0961C9.5985 27.0896 9.58966 27.0831 9.58082 27.0769C9.57533 27.0728 9.57007 27.0689 9.56458 27.0651C9.54307 27.0494 9.52157 27.0338 9.5003 27.0179C9.47522 26.9993 9.45037 26.9808 9.42552 26.9623C9.42504 26.9623 9.4248 26.962 9.42432 26.9613C9.41763 26.9565 9.41094 26.9514 9.40401 26.9461C9.37869 26.9271 9.35312 26.9079 9.32803 26.8884C9.32015 26.8828 9.3125 26.8768 9.30462 26.8703C9.30366 26.8701 9.30271 26.8693 9.30175 26.8681C9.30008 26.8669 9.29865 26.8657 9.29697 26.8643C9.2855 26.8559 9.27428 26.847 9.26281 26.8383C9.24536 26.8251 9.22816 26.8116 9.21096 26.7976C9.20379 26.7926 9.19686 26.787 9.18993 26.7812C9.17942 26.7731 9.16891 26.7646 9.15839 26.7564C9.12996 26.7341 9.10177 26.7114 9.07381 26.6888C9.07047 26.6861 9.06688 26.6833 9.06354 26.6806C9.02483 26.6491 8.98636 26.6175 8.94813 26.5858C8.93906 26.5783 8.92998 26.5706 8.9209 26.5631C8.91636 26.5595 8.91182 26.5557 8.90728 26.5521C8.89509 26.5417 8.88267 26.5314 8.87048 26.521C8.86929 26.52 8.86833 26.5191 8.86714 26.5181C8.8356 26.4914 8.80406 26.4647 8.77276 26.4377C8.75556 26.4228 8.73835 26.4081 8.72139 26.3932C8.70203 26.3763 8.68268 26.3595 8.66357 26.3426C8.65688 26.3368 8.65019 26.3311 8.64374 26.325C8.63012 26.3133 8.61674 26.3012 8.60312 26.2889C8.5938 26.2808 8.58448 26.2726 8.57516 26.2639C8.57206 26.2613 8.56919 26.2588 8.56632 26.256C8.56441 26.2543 8.56226 26.2526 8.56035 26.2507C8.5582 26.249 8.55629 26.2471 8.55414 26.2451C8.53192 26.2251 8.50994 26.2052 8.48795 26.1849C8.47218 26.1705 8.45641 26.1561 8.44088 26.1416L8.42344 26.1255C8.42153 26.1238 8.41986 26.1221 8.41795 26.1204C8.39453 26.0985 8.37135 26.0766 8.34794 26.0547C8.32285 26.0311 8.298 26.0075 8.27315 25.9837V25.9834C8.27244 25.983 8.27196 25.9822 8.27148 25.982C8.24878 25.9603 8.22632 25.9384 8.20363 25.9165L8.19861 25.9115C8.13003 25.8445 8.06218 25.7767 7.99528 25.708C7.99002 25.7027 7.98476 25.6972 7.97951 25.6919H7.97927C7.96374 25.676 7.94845 25.6601 7.93339 25.6443C7.89517 25.6048 7.85741 25.5653 7.8199 25.5253C7.807 25.5116 7.7941 25.4979 7.7812 25.4839C7.77594 25.4781 7.77068 25.4726 7.76566 25.4668C7.74368 25.4435 7.72218 25.4201 7.70068 25.3965C7.68347 25.3778 7.66651 25.359 7.65002 25.3402C7.62589 25.3137 7.602 25.2872 7.57858 25.2605C7.54848 25.2268 7.51909 25.1931 7.4897 25.1592C7.48898 25.1585 7.48827 25.1575 7.48755 25.1568C7.45912 25.1243 7.43116 25.0915 7.40321 25.0585C7.39198 25.0453 7.38075 25.0321 7.36952 25.0186C7.34228 24.9863 7.31528 24.9538 7.28852 24.9213C7.02928 24.6067 6.78509 24.2788 6.55739 23.9389C5.50156 22.3647 4.7948 20.5332 4.54918 18.5575C4.48586 18.0474 4.45312 17.5277 4.45312 17.0002C4.45312 15.947 4.58334 14.9244 4.82849 13.9477C4.85787 13.8307 4.88894 13.7144 4.92167 13.5986C4.98236 13.3834 5.04878 13.1706 5.1207 12.9604C5.71659 11.2151 6.68833 9.64577 7.93865 8.35062C7.93865 8.35062 7.93865 8.35062 7.93865 8.35038C7.94558 8.34316 7.95275 8.33594 7.95968 8.32871C9.14143 7.11012 10.57 6.13611 12.1641 5.48829C13.1084 5.10432 14.1107 4.83518 15.1541 4.69748C15.6824 4.62767 16.2214 4.5918 16.7686 4.5918C23.5702 4.5918 29.084 10.1472 29.084 17.0002Z" fill="#511100"/>
<path d="M32.0654 18.0734C32.0654 19.7715 31.123 21.248 29.7363 22.0003C29.1127 22.3387 28.3995 22.5306 27.6416 22.5306C25.8819 22.5306 24.3623 21.4954 23.6498 19.9966C23.3989 19.4692 23.2479 18.884 23.2218 18.2662C23.2192 18.2022 23.2178 18.1379 23.2178 18.0734C23.2178 15.8729 24.8005 14.0447 26.8818 13.6817C27.1286 13.6386 27.3826 13.6162 27.6416 13.6162C30.0849 13.6162 32.0654 15.6119 32.0654 18.0734Z" fill="#FB6920"/>
<path opacity="0.4" d="M27.5977 21.8066C29.6316 21.8066 31.2803 20.1454 31.2803 18.0962C31.2803 16.047 29.6316 14.3857 27.5977 14.3857C25.5638 14.3857 23.915 16.047 23.915 18.0962C23.915 20.1454 25.5638 21.8066 27.5977 21.8066Z" fill="#FFCA8C"/>
<path d="M18.1566 21.4471C17.7581 20.822 17.0781 20.4365 16.3414 20.4101C15.5262 20.3809 14.4008 20.4464 13.2642 20.601C11.548 20.8342 9.80643 21.2707 9.06814 21.8906C8.18648 22.6308 7.7392 23.94 7.51843 24.9212C7.51843 24.9212 7.50099 25.0177 7.49023 25.159C7.51962 25.193 7.54901 25.2267 7.57912 25.2604C7.60253 25.2871 7.62643 25.3136 7.65056 25.3401C7.66704 25.3588 7.68401 25.3776 7.70121 25.3964C7.72271 25.42 7.74422 25.4433 7.7662 25.4667C7.77122 25.4725 7.77647 25.478 7.78173 25.4838C7.79463 25.4977 7.80753 25.5115 7.82044 25.5252C7.85795 25.5651 7.8957 25.6046 7.93393 25.6441C7.94898 25.66 7.96427 25.6759 7.9798 25.6918H7.98004C7.9853 25.6971 7.99056 25.7026 7.99581 25.7079C8.06271 25.7765 8.13057 25.8444 8.19914 25.9113L8.20416 25.9164C8.22686 25.9383 8.24932 25.9602 8.27202 25.9819C8.2725 25.9821 8.27297 25.9828 8.27369 25.9833V25.9835C8.29854 26.0074 8.32339 26.031 8.34847 26.0546C8.37189 26.0765 8.39507 26.0984 8.41848 26.1203C8.42039 26.122 8.42207 26.1237 8.42398 26.1253L8.44142 26.1415C8.45695 26.1559 8.47272 26.1704 8.48849 26.1848C8.51047 26.205 8.53245 26.225 8.55467 26.245C8.55682 26.2469 8.55873 26.2488 8.56088 26.2505C8.5628 26.2524 8.56495 26.2541 8.56686 26.2558C8.56972 26.2587 8.57259 26.2611 8.5757 26.2638C8.58502 26.2724 8.59434 26.2806 8.60365 26.2888C8.61727 26.3011 8.63065 26.3131 8.64427 26.3249C8.65072 26.3309 8.65741 26.3367 8.6641 26.3425C8.68322 26.3593 8.70257 26.3762 8.72192 26.393C8.73889 26.408 8.75609 26.4226 8.77329 26.4376C8.80459 26.4645 8.83613 26.4913 8.86767 26.518C8.86887 26.5189 8.86982 26.5199 8.87102 26.5209C8.8832 26.5312 8.89563 26.5416 8.90781 26.5519C8.91235 26.5555 8.91689 26.5594 8.92143 26.563C8.93051 26.5705 8.93959 26.5782 8.94867 26.5856C8.9869 26.6174 9.02537 26.6489 9.06407 26.6805C9.06742 26.6831 9.071 26.686 9.07435 26.6887C9.1023 26.7113 9.1305 26.7339 9.15893 26.7563C9.16944 26.7645 9.17996 26.7729 9.19047 26.7811C9.1974 26.7869 9.20433 26.7924 9.21149 26.7975C9.2287 26.8114 9.2459 26.8249 9.26334 26.8382C9.27481 26.8468 9.28604 26.8557 9.29751 26.8642C9.29918 26.8656 9.30062 26.8668 9.30229 26.868C9.30324 26.8692 9.3042 26.8699 9.30515 26.8702C9.31304 26.8767 9.32068 26.8827 9.32857 26.8882C9.35366 26.9077 9.37922 26.927 9.40455 26.946C9.41148 26.9513 9.41817 26.9564 9.42486 26.9612C9.42534 26.9619 9.42558 26.9621 9.42605 26.9621C9.4509 26.9807 9.47575 26.9992 9.50084 27.0177C9.5221 27.0336 9.54361 27.0493 9.56511 27.0649C9.57061 27.0688 9.57586 27.0726 9.58136 27.0767C9.5902 27.083 9.59904 27.0895 9.60812 27.096C9.63082 27.1126 9.65399 27.129 9.67693 27.1453C9.70584 27.1658 9.73475 27.1863 9.76366 27.2065C9.77035 27.2113 9.77728 27.2159 9.78397 27.2207C9.79687 27.2298 9.80978 27.2387 9.82268 27.2474C9.83247 27.2544 9.84227 27.2611 9.85231 27.2679C9.8762 27.2842 9.90009 27.3004 9.92399 27.3165C9.92685 27.3187 9.92972 27.3206 9.93259 27.3223C9.94023 27.3276 9.94812 27.3329 9.956 27.3382C9.97966 27.354 10.0033 27.3697 10.0272 27.3853C10.0387 27.3933 10.0504 27.4007 10.0621 27.4082C10.09 27.4267 10.118 27.445 10.1464 27.4633C10.1617 27.4732 10.1773 27.4831 10.1925 27.4927C10.1992 27.497 10.2062 27.5014 10.2129 27.5057C10.2499 27.5293 10.2872 27.5527 10.3244 27.5755C10.3586 27.5967 10.3928 27.6177 10.4269 27.6386C10.4398 27.6465 10.4527 27.6545 10.4659 27.6619C10.475 27.6677 10.4843 27.6733 10.4936 27.6788C10.501 27.6831 10.5087 27.6877 10.5161 27.692C10.5218 27.6956 10.5278 27.6993 10.5337 27.7026C10.5674 27.7228 10.6011 27.7426 10.635 27.7621C10.642 27.7659 10.6489 27.77 10.6558 27.7741C10.6699 27.7823 10.6838 27.7905 10.6979 27.7982C10.7139 27.8073 10.7297 27.8165 10.7457 27.8254C10.7536 27.83 10.7617 27.8346 10.7696 27.8389C10.8011 27.8567 10.8326 27.8743 10.8642 27.8916C10.8957 27.9092 10.9275 27.9265 10.9593 27.9436C10.9911 27.9607 11.0228 27.9778 11.0548 27.9946C11.0869 28.0115 11.1189 28.0283 11.1509 28.045C11.1832 28.0616 11.2152 28.0782 11.2477 28.0943C11.3796 28.1615 11.5131 28.226 11.6476 28.2879C11.672 28.2992 11.6966 28.3105 11.7212 28.3216C11.7597 28.3391 11.7984 28.3565 11.8371 28.3733C11.8686 28.3873 11.9002 28.401 11.9317 28.4145C11.9668 28.4299 12.0022 28.4448 12.0376 28.4595C12.0588 28.4684 12.0801 28.4773 12.1014 28.486C12.1109 28.4901 12.1207 28.4942 12.1305 28.498C12.1601 28.5103 12.19 28.5226 12.2201 28.5344C12.2373 28.5413 12.2548 28.5483 12.272 28.5551C12.2951 28.5642 12.3181 28.5734 12.3413 28.5823C12.3752 28.5955 12.4093 28.6085 12.4433 28.6213C12.4774 28.6343 12.5116 28.647 12.546 28.6595C12.5802 28.6723 12.6146 28.6846 12.649 28.6969C12.6834 28.7094 12.7178 28.7214 12.7525 28.7335C12.7785 28.7426 12.8048 28.7515 12.8311 28.7604C12.8487 28.7667 12.8664 28.7725 12.8841 28.7782C12.9094 28.7869 12.935 28.7953 12.9603 28.8035C12.9985 28.8163 13.037 28.8285 13.0757 28.8408C13.1073 28.8507 13.1386 28.8606 13.1701 28.8702C13.2052 28.881 13.2403 28.8916 13.2757 28.902C13.3108 28.9126 13.3462 28.9229 13.3816 28.933C13.4167 28.9431 13.452 28.9532 13.4874 28.9631C13.5651 28.9848 13.6429 29.0055 13.7213 29.0255C13.7505 29.0329 13.7796 29.0404 13.8088 29.0476C13.8446 29.0565 13.8804 29.0652 13.9165 29.0739C13.9488 29.0816 13.9815 29.0893 14.014 29.0967C14.0217 29.0986 14.0293 29.1003 14.0372 29.102C14.068 29.109 14.0988 29.116 14.1299 29.1227C14.1316 29.1232 14.1335 29.1237 14.1354 29.1239C14.1707 29.1319 14.2063 29.1393 14.2417 29.1468C14.4235 29.1851 14.6066 29.2193 14.7912 29.2491C14.8273 29.2551 14.8636 29.2607 14.9 29.2664C14.9403 29.2727 14.981 29.2787 15.0218 29.2845C15.0562 29.2893 15.0904 29.2941 15.1248 29.2987C15.1253 29.2987 15.1258 29.2987 15.1262 29.2989C15.1535 29.3025 15.1805 29.3062 15.2077 29.3095C15.2271 29.3122 15.2464 29.3146 15.266 29.317C15.2944 29.3206 15.3231 29.324 15.352 29.3271C15.3967 29.3324 15.4414 29.3372 15.4863 29.3418C15.5078 29.3442 15.5293 29.3464 15.5511 29.3485C15.5537 29.3488 15.5563 29.349 15.5592 29.3492C15.5905 29.3524 15.622 29.3555 15.6536 29.3582C15.6868 29.3613 15.7202 29.3642 15.7537 29.3668C15.8036 29.3709 15.8533 29.3748 15.9035 29.3781V29.3596C16.2643 29.3916 16.6293 29.4085 16.9985 29.4085C17.8658 29.4085 18.7123 29.3182 19.529 29.1463L19.5333 29.1451C19.8155 24.8875 18.8684 22.5632 18.1566 21.4471Z" fill="#6C2400"/>
<path d="M14.026 24.0622C14.026 24.0622 15.1313 25.2589 18.1337 25.0998C18.1337 25.0998 13.3226 26.5151 11.7335 25.2185C10.1446 23.9216 13.3637 23.0649 14.026 24.0622Z" fill="#511100"/>
<path d="M14.532 24.0821C14.4716 24.1567 14.5346 24.2677 14.629 24.2518C16.226 23.98 17.2833 22.741 17.2833 22.741L16.1945 21.0963L14.7991 20.6993L13.2642 20.6006C11.548 20.8339 9.80643 21.2703 9.06814 21.8902C8.18648 22.6305 7.7392 23.9396 7.51843 24.9208C7.51843 24.9208 7.50099 25.0173 7.49023 25.1587C7.51962 25.1926 7.54901 25.2263 7.57912 25.26C7.60253 25.2867 7.62643 25.3132 7.65056 25.3397C7.66704 25.3585 7.68401 25.3772 7.70121 25.396C7.72271 25.4196 7.74422 25.443 7.7662 25.4663C7.77122 25.4721 7.77647 25.4776 7.78173 25.4834C7.79463 25.4974 7.80754 25.5111 7.82044 25.5248C7.85795 25.5648 7.8957 25.6042 7.93393 25.6437C7.94898 25.6596 7.96427 25.6755 7.9798 25.6914H7.98004C7.9853 25.6967 7.99056 25.7022 7.99581 25.7075C8.06271 25.7761 8.13057 25.844 8.19914 25.9109L8.20416 25.916C8.22686 25.9379 8.24932 25.9598 8.27202 25.9815C8.2725 25.9817 8.27297 25.9824 8.27369 25.9829V25.9832C8.29854 26.007 8.32339 26.0306 8.34847 26.0542C8.37189 26.0761 8.39507 26.098 8.41848 26.1199C8.42039 26.1216 8.42207 26.1233 8.42398 26.125L8.44142 26.1411C8.45695 26.1555 8.47272 26.17 8.48849 26.1844C8.51047 26.2046 8.53245 26.2246 8.55467 26.2446C8.55682 26.2465 8.55873 26.2485 8.56088 26.2501C8.5628 26.2521 8.56495 26.2538 8.56686 26.2554C8.56972 26.2583 8.57259 26.2607 8.5757 26.2634C8.58502 26.272 8.59434 26.2802 8.60365 26.2884C8.61727 26.3007 8.63065 26.3127 8.64427 26.3245C8.65072 26.3305 8.65741 26.3363 8.6641 26.3421C8.68322 26.359 8.70257 26.3758 8.72192 26.3927C8.73889 26.4076 8.75609 26.4223 8.77329 26.4372C8.80459 26.4642 8.83613 26.4909 8.86767 26.5176C8.86887 26.5186 8.86982 26.5195 8.87102 26.5205C8.8832 26.5308 8.89563 26.5412 8.90781 26.5515C8.91235 26.5552 8.91689 26.559 8.92143 26.5626C8.93051 26.5701 8.93959 26.5778 8.94867 26.5852C8.9869 26.617 9.02537 26.6486 9.06407 26.6801C9.06742 26.6827 9.071 26.6856 9.07435 26.6883C9.1023 26.7109 9.1305 26.7335 9.15893 26.7559C9.16944 26.7641 9.17996 26.7725 9.19047 26.7807C9.1974 26.7865 9.20433 26.792 9.21149 26.7971C9.2287 26.8111 9.2459 26.8245 9.26334 26.8378C9.27481 26.8464 9.28604 26.8553 9.29751 26.8638C9.29918 26.8652 9.30062 26.8664 9.30229 26.8676C9.30324 26.8688 9.3042 26.8695 9.30516 26.8698C9.31304 26.8763 9.32069 26.8823 9.32857 26.8878C9.35366 26.9073 9.37922 26.9266 9.40455 26.9456C9.41148 26.9509 9.41817 26.956 9.42486 26.9608C9.42534 26.9615 9.42558 26.9617 9.42605 26.9617C9.4509 26.9803 9.47575 26.9988 9.50084 27.0174C9.5221 27.0332 9.54361 27.0489 9.56511 27.0645C9.57061 27.0684 9.57586 27.0722 9.58136 27.0763C9.5902 27.0826 9.59904 27.0891 9.60812 27.0956C9.63082 27.1122 9.65399 27.1286 9.67693 27.145C9.70584 27.1654 9.73475 27.1859 9.76366 27.2061C9.77035 27.2109 9.77728 27.2155 9.78397 27.2203C9.79688 27.2294 9.80978 27.2384 9.82268 27.247C9.83248 27.254 9.84227 27.2607 9.85231 27.2675C9.8762 27.2839 9.90009 27.3 9.92399 27.3161C9.92685 27.3183 9.92972 27.3202 9.93259 27.3219C9.94023 27.3272 9.94812 27.3325 9.956 27.3378C9.97966 27.3537 10.0033 27.3693 10.0272 27.385C10.0387 27.3929 10.0504 27.4004 10.0621 27.4078C10.09 27.4264 10.118 27.4447 10.1464 27.463C10.1617 27.4728 10.1773 27.4827 10.1925 27.4923C10.1992 27.4967 10.2062 27.501 10.2129 27.5053C10.2499 27.5289 10.2872 27.5523 10.3244 27.5751C10.3586 27.5963 10.3928 27.6173 10.4269 27.6382C10.4398 27.6462 10.4527 27.6541 10.4659 27.6616C10.475 27.6673 10.4843 27.6729 10.4936 27.6784C10.501 27.6827 10.5087 27.6873 10.5161 27.6917C10.5218 27.6953 10.5278 27.6989 10.5337 27.7022C10.5674 27.7225 10.6011 27.7422 10.635 27.7617C10.642 27.7656 10.6489 27.7697 10.6558 27.7737C10.6699 27.7819 10.6838 27.7901 10.6979 27.7978C10.7139 27.807 10.7297 27.8161 10.7457 27.825C10.7536 27.8296 10.7617 27.8342 10.7696 27.8385C10.8011 27.8563 10.8326 27.8739 10.8642 27.8912C10.8957 27.9088 10.9275 27.9261 10.9593 27.9432C10.9911 27.9603 11.0228 27.9774 11.0548 27.9943C11.0869 28.0111 11.1189 28.028 11.1509 28.0446C11.1832 28.0612 11.2152 28.0778 11.2477 28.0939C11.3796 28.1611 11.5131 28.2256 11.6476 28.2875C11.672 28.2988 11.6966 28.3101 11.7212 28.3212C11.7597 28.3388 11.7984 28.3561 11.8371 28.3729C11.8686 28.3869 11.9002 28.4006 11.9317 28.4141C11.9668 28.4295 12.0022 28.4444 12.0376 28.4591C12.0588 28.468 12.0801 28.4769 12.1014 28.4856C12.1109 28.4897 12.1207 28.4938 12.1305 28.4976C12.1601 28.5099 12.19 28.5222 12.2201 28.534C12.2373 28.541 12.2548 28.5479 12.272 28.5547C12.2951 28.5638 12.3181 28.573 12.3413 28.5819C12.3752 28.5951 12.4093 28.6081 12.4433 28.6209C12.4774 28.6339 12.5116 28.6466 12.546 28.6592C12.5802 28.6719 12.6146 28.6842 12.649 28.6965C12.6834 28.709 12.7178 28.721 12.7525 28.7331C12.7785 28.7422 12.8048 28.7511 12.8311 28.76C12.8487 28.7663 12.8664 28.7721 12.8841 28.7779C12.9094 28.7865 12.935 28.7949 12.9603 28.8031C12.9986 28.8159 13.037 28.8282 13.0757 28.8404C13.1073 28.8503 13.1386 28.8602 13.1701 28.8698C13.2052 28.8806 13.2404 28.8912 13.2757 28.9016C13.3108 28.9122 13.3462 28.9225 13.3816 28.9326C13.4167 28.9428 13.452 28.9529 13.4874 28.9627C13.5651 28.9844 13.6429 29.0051 13.7213 29.0251C13.7505 29.0325 13.7796 29.04 13.8088 29.0472C13.8446 29.0561 13.8804 29.0648 13.9165 29.0735C13.9488 29.0812 13.9815 29.0889 14.014 29.0963C14.0217 29.0983 14.0293 29.1 14.0372 29.1016C14.068 29.1086 14.0988 29.1156 14.1299 29.1223C14.1316 29.1228 14.1335 29.1233 14.1354 29.1235C14.1707 29.1315 14.2063 29.139 14.2417 29.1464C14.4235 29.1847 14.6066 29.2189 14.7913 29.2487C14.8273 29.2547 14.8636 29.2603 14.9 29.2661C14.9403 29.2723 14.981 29.2783 15.0218 29.2841C15.0562 29.2889 15.0904 29.2937 15.1248 29.2983C15.1253 29.2983 15.1258 29.2983 15.1262 29.2986C15.1535 29.3022 15.1805 29.3058 15.2077 29.3092C15.2271 29.3118 15.2464 29.3142 15.266 29.3166C15.2944 29.3202 15.3231 29.3236 15.352 29.3267C15.3967 29.332 15.4414 29.3368 15.4863 29.3414C15.5078 29.3438 15.5293 29.346 15.5511 29.3481C15.5537 29.3484 15.5563 29.3486 15.5592 29.3489C15.5905 29.352 15.622 29.3551 15.6536 29.3578C15.6868 29.3609 15.7202 29.3638 15.7537 29.3664C15.8036 29.3705 15.8533 29.3744 15.9035 29.3778V28.0624L11.9258 25.3488C11.9346 25.3356 11.9437 25.3221 11.952 25.3086C12.1212 25.0388 12.309 24.831 12.4803 24.6753C12.7257 24.4521 13.0291 24.3019 13.3543 24.2417C13.9841 24.1254 14.4493 23.896 14.6651 23.7732C14.7005 23.7532 14.7382 23.7947 14.7162 23.8286C14.6531 23.9261 14.5889 24.0118 14.532 24.0821Z" fill="#511100"/>
<path d="M25.9796 23.8477C25.4765 24.5145 24.6466 24.846 23.9275 25.2574C23.6269 25.4168 23.2948 25.5123 22.9521 25.5381C23.1739 27.6262 24.0285 28.7762 24.909 28.6927C25.8055 28.6077 26.3894 27.2757 26.1873 25.1146C26.1455 24.6681 26.0743 24.242 25.9796 23.8477Z" fill="#190E07"/>
<path d="M29.8882 22.3339C29.8898 22.4557 29.8471 22.5746 29.7725 22.6714C29.0631 23.5953 27.4463 23.6103 27.4226 23.6105C27.4224 23.6105 27.4224 23.6105 27.4224 23.6105C27.4224 23.6107 27.4224 23.6107 27.4224 23.611C26.6655 24.8199 25.7071 25.8878 24.5949 26.7672C24.1808 27.0944 23.7455 27.3956 23.2913 27.6681C22.5893 26.7181 22.504 25.3638 22.6337 24.3546C22.7178 23.6993 22.893 23.1897 23.0488 23.0311C23.3661 22.708 23.5496 22.1307 23.6184 21.8767C23.6389 21.8009 23.6263 21.7195 23.5825 21.6543C23.4447 21.4473 23.1403 20.9432 23.1063 20.481C23.0915 20.2792 23.1482 20.1584 23.2299 20.0866C23.2392 20.0784 23.249 20.0707 23.259 20.0638C23.4239 19.9487 23.6528 20.0125 23.7481 20.1901C24.0527 20.7576 24.4761 21.2511 24.9848 21.6365C25.7245 22.1974 26.6444 22.5298 27.6417 22.5298C27.7743 22.5298 27.9053 22.5241 28.035 22.5125C28.5714 22.4648 29.0801 22.3209 29.5446 22.0977C29.6941 22.0257 29.8705 22.1252 29.886 22.2915C29.8863 22.2946 29.8865 22.2975 29.8867 22.3007C29.8877 22.312 29.8882 22.3228 29.8882 22.3339Z" fill="#EAB783"/>
<path d="M29.8868 22.301C29.8865 22.2979 29.8863 22.295 29.8861 22.2919C29.8705 22.1255 29.6942 22.0261 29.5446 22.0981C29.0801 22.3213 28.5715 22.4652 28.0351 22.5129C27.9053 22.5244 27.7744 22.5302 27.6418 22.5302C26.6445 22.5302 25.7246 22.1978 24.9849 21.6371C24.9849 21.6371 24.9849 21.6371 24.9849 21.6368C24.8582 21.541 24.7369 21.4382 24.6215 21.3294C24.6203 21.3285 24.6193 21.3273 24.6181 21.3263C24.5617 21.2731 24.5065 21.2182 24.4528 21.1619C24.4513 21.1604 24.4501 21.1592 24.4487 21.1578C24.4224 21.1303 24.3966 21.1024 24.3713 21.0742C24.3617 21.0637 24.3524 21.0526 24.34 21.0442C24.3039 21.0198 24.2764 20.9857 24.2552 20.9476C24.2425 20.9248 24.2258 20.9053 24.2095 20.8853C24.1864 20.8566 24.1637 20.8277 24.1412 20.7984C24.1393 20.7957 24.1371 20.7931 24.1352 20.7904C24.1132 20.7618 24.0917 20.7329 24.0705 20.7035C24.069 20.7016 24.0676 20.6999 24.0664 20.698C24.0452 20.6686 24.0241 20.6388 24.0036 20.6087C24.0002 20.6036 23.9969 20.5988 23.9935 20.5937C23.973 20.5637 23.9529 20.5336 23.9331 20.503C23.9298 20.4979 23.9269 20.4926 23.9228 20.4881C23.9097 20.4727 23.8987 20.456 23.8899 20.4377C23.8827 20.4226 23.8736 20.4086 23.865 20.3944C23.8466 20.3643 23.8287 20.3337 23.8112 20.3032C23.8043 20.2909 23.7974 20.2786 23.7902 20.2666C23.7778 20.2454 23.7651 20.2242 23.7544 20.2021C23.6631 20.0155 23.4278 19.9462 23.2591 20.0636C23.249 20.0706 23.2392 20.0783 23.2299 20.0865C23.1482 20.1583 23.0916 20.2791 23.1064 20.4808C23.1403 20.943 23.4447 21.4471 23.5826 21.6542C23.6263 21.7194 23.639 21.8008 23.6184 21.8766C23.5496 22.1306 23.3661 22.7079 23.0488 23.0309C22.893 23.1896 22.7179 23.6992 22.6338 24.3545C23.3965 23.784 24.054 23.0952 24.5753 22.3179C24.691 22.1453 24.9216 22.093 25.0979 22.2018C25.8285 22.652 26.6877 22.9118 27.6069 22.9118C28.4322 22.9118 29.2089 22.7028 29.8882 22.3343C29.8882 22.3343 29.8882 22.3343 29.8882 22.334C29.8882 22.3232 29.8877 22.3123 29.8868 22.301Z" fill="#F3CEA6"/>
<path d="M24.9092 28.6924C24.9092 28.6924 21.0008 29.4954 17.1222 29.4076C17.0938 29.4069 17.0654 29.4059 17.0369 29.4054C17.0364 29.4052 17.0357 29.4052 17.0353 29.4054C17.0307 29.4052 17.0259 29.4049 17.0214 29.4049L17.0202 29.4056C16.9779 29.4066 16.9354 29.4071 16.8928 29.4076C16.8518 29.4081 16.8104 29.4083 16.7693 29.4083C16.6668 29.4083 16.5646 29.4071 16.4625 29.4044C16.4303 29.4037 16.3983 29.4028 16.3662 29.4018C16.356 29.4016 16.3457 29.4011 16.3357 29.4006C16.307 29.3996 16.2783 29.3987 16.2496 29.3975C16.2152 29.396 16.1808 29.3943 16.1464 29.3927C16.015 29.3862 15.8841 29.3775 15.7539 29.3667C15.7204 29.364 15.687 29.3611 15.6538 29.358C15.6222 29.3553 15.5907 29.3522 15.5594 29.3491C15.5565 29.3488 15.5539 29.3486 15.5513 29.3484C15.5295 29.3462 15.508 29.344 15.4865 29.3416C15.4416 29.337 15.3969 29.3322 15.3522 29.3269C15.3233 29.3238 15.2946 29.3204 15.2662 29.3168C15.2466 29.3144 15.2273 29.312 15.2079 29.3094C15.1807 29.306 15.1537 29.3024 15.1264 29.2988C15.126 29.2985 15.1255 29.2985 15.125 29.2985C15.0906 29.2939 15.0564 29.2891 15.022 29.2843C14.9812 29.2785 14.9405 29.2725 14.9002 29.2663C14.8638 29.2605 14.8275 29.2549 14.7915 29.2489C14.6068 29.2191 14.4237 29.1849 14.2419 29.1466C14.2065 29.1392 14.1709 29.1317 14.1356 29.1238C14.1337 29.1235 14.1318 29.123 14.1301 29.1225C14.099 29.1158 14.0682 29.1088 14.0374 29.1018C14.0295 29.1002 14.0219 29.0985 14.0142 29.0965C13.9817 29.0891 13.949 29.0814 13.9167 29.0737C13.8806 29.065 13.8448 29.0563 13.809 29.0474C13.7798 29.0402 13.7507 29.0328 13.7215 29.0253C13.6431 29.0053 13.5653 28.9846 13.4876 28.9629C13.4522 28.9531 13.4169 28.943 13.3818 28.9328C13.3464 28.9227 13.311 28.9124 13.2759 28.9018C13.2406 28.8914 13.2054 28.8808 13.1703 28.87C13.1388 28.8604 13.1075 28.8505 13.0759 28.8406C13.0372 28.8284 12.9988 28.8161 12.9605 28.8033C12.9352 28.7951 12.9096 28.7867 12.8843 28.7781C12.8666 28.7723 12.8489 28.7665 12.8313 28.7602C12.805 28.7513 12.7787 28.7424 12.7527 28.7333C12.718 28.7212 12.6836 28.7092 12.6492 28.6967C12.6148 28.6844 12.5804 28.6721 12.5462 28.6594C12.5118 28.6469 12.4776 28.6341 12.4435 28.6211C12.4095 28.6083 12.3754 28.5953 12.3415 28.5821C12.3183 28.5732 12.2953 28.564 12.2722 28.5549C12.255 28.5482 12.2375 28.5412 12.2203 28.5342C12.1902 28.5224 12.1603 28.5101 12.1307 28.4978C12.1209 28.494 12.1111 28.4899 12.1016 28.4858C12.0803 28.4771 12.059 28.4682 12.0378 28.4593C12.0024 28.4446 11.967 28.4297 11.9319 28.4143C11.9004 28.4008 11.8688 28.3871 11.8373 28.3731C11.7986 28.3563 11.7599 28.339 11.7214 28.3214C11.6968 28.3103 11.6722 28.299 11.6478 28.2877C11.5133 28.2258 11.3798 28.1613 11.2479 28.0941C11.2154 28.078 11.1834 28.0614 11.1511 28.0448C11.1191 28.0282 11.0871 28.0113 11.055 27.9945C11.023 27.9776 10.9913 27.9605 10.9595 27.9434C10.9277 27.9263 10.8959 27.909 10.8644 27.8914C10.8328 27.8741 10.8013 27.8565 10.7698 27.8387C10.7619 27.8344 10.7538 27.8298 10.7459 27.8252C10.7299 27.8163 10.7141 27.8072 10.6981 27.798C10.684 27.7903 10.6701 27.7821 10.656 27.774C10.6491 27.7699 10.6422 27.7658 10.6352 27.7619C10.6013 27.7424 10.5676 27.7227 10.5339 27.7025C10.528 27.6991 10.522 27.6955 10.5163 27.6919C10.5089 27.6875 10.5012 27.683 10.4938 27.6786C10.4845 27.6731 10.4752 27.6675 10.4661 27.6618C10.4529 27.6543 10.44 27.6464 10.4271 27.6384C10.393 27.6175 10.3588 27.5965 10.3246 27.5753C10.2874 27.5525 10.2501 27.5291 10.2131 27.5055C10.2064 27.5012 10.1994 27.4969 10.1927 27.4925C10.1775 27.4829 10.1619 27.473 10.1466 27.4632C10.1182 27.4449 10.0902 27.4266 10.0623 27.408C10.0506 27.4006 10.0389 27.3931 10.0274 27.3852C10.0035 27.3695 9.97986 27.3539 9.9562 27.338C9.94832 27.3327 9.94043 27.3274 9.93279 27.3221C9.92992 27.3204 9.92705 27.3185 9.92419 27.3163C9.90029 27.3002 9.8764 27.2841 9.85251 27.2677C9.84247 27.2609 9.83268 27.2542 9.82288 27.2472C9.80998 27.2386 9.79708 27.2297 9.78417 27.2205C9.77748 27.2157 9.77055 27.2111 9.76386 27.2063C9.73495 27.1861 9.70604 27.1656 9.67713 27.1452C9.65419 27.1288 9.63102 27.1124 9.60832 27.0958C9.59924 27.0893 9.5904 27.0828 9.58156 27.0765C9.57606 27.0725 9.57081 27.0686 9.56531 27.0647C9.54381 27.0491 9.5223 27.0335 9.50104 27.0176C9.47595 26.999 9.4511 26.9805 9.42625 26.962C9.42578 26.962 9.42554 26.9617 9.42506 26.961C9.41837 26.9562 9.41168 26.9511 9.40475 26.9458C9.37942 26.9268 9.35386 26.9076 9.32877 26.8881C9.32089 26.8825 9.31324 26.8765 9.30536 26.87C9.3044 26.8698 9.30344 26.869 9.30249 26.8678C9.30082 26.8666 9.29938 26.8654 9.29771 26.864C9.28624 26.8556 9.27501 26.8466 9.26354 26.838C9.2461 26.8247 9.2289 26.8113 9.21169 26.7973C9.20453 26.7922 9.1976 26.7867 9.19067 26.7809C9.18016 26.7727 9.16964 26.7643 9.15913 26.7561C9.1307 26.7337 9.1025 26.7111 9.07455 26.6885C9.0712 26.6858 9.06762 26.6829 9.06427 26.6803C9.02557 26.6488 8.9871 26.6172 8.94887 26.5855C8.93979 26.578 8.93071 26.5703 8.92163 26.5628C8.91709 26.5592 8.91255 26.5554 8.90801 26.5517C8.89583 26.5414 8.8834 26.531 8.87122 26.5207C8.87002 26.5197 8.86907 26.5188 8.86787 26.5178C8.83633 26.4911 8.80479 26.4644 8.77349 26.4374C8.75629 26.4225 8.73909 26.4078 8.72212 26.3929C8.70277 26.376 8.68342 26.3592 8.6643 26.3423C8.65761 26.3365 8.65092 26.3308 8.64447 26.3247C8.63085 26.3129 8.61747 26.3009 8.60385 26.2886C8.59454 26.2804 8.58522 26.2723 8.5759 26.2636C8.57279 26.2609 8.56992 26.2585 8.56706 26.2556C8.37305 25.9675 8.3482 25.832 8.3482 25.832C8.25621 25.6194 8.20508 25.3847 8.20508 25.1379C8.20508 24.1788 8.97659 23.4013 9.92849 23.4013C9.92849 23.4013 10.3151 23.4809 10.949 23.5946C11.2849 23.655 11.6904 23.725 12.1446 23.7975C13.5562 24.6576 15.2454 25.1584 17.0608 25.1584C19.3627 25.1584 21.4617 24.3536 23.0489 23.0312C22.9768 23.3668 22.9292 23.7402 22.9099 24.1396C22.89 24.5447 22.8991 24.9764 22.9409 25.4227C23.0174 26.2405 23.1894 26.9196 23.4224 27.4434C23.8051 28.304 24.352 28.7453 24.9092 28.6924Z" fill="#511100"/>
<path d="M23.0492 23.0312C22.977 23.3668 22.9295 23.7402 22.9101 24.1396C21.3893 25.377 19.4047 26.1256 17.2336 26.1256C14.7599 26.1256 12.5283 25.1538 10.9492 23.5946C11.2852 23.655 11.6906 23.725 12.1448 23.7975C13.5564 24.6576 15.2457 25.1584 17.0611 25.1584C19.3629 25.1584 21.4619 24.3536 23.0492 23.0312Z" fill="#6C2400"/>
<path d="M23.0662 16.9588C23.0662 19.5763 22.4225 20.9497 21.6283 20.9497C21.6283 20.9497 21.4957 20.911 21.2785 20.8551C20.6535 20.5036 20.1904 19.1786 20.1904 16.9588C20.1904 14.3416 20.8341 12.2197 21.6283 12.2197C21.7103 12.2197 21.7906 12.2424 21.8687 12.2859C22.5484 12.6627 23.0662 14.6114 23.0662 16.9588Z" fill="#190E07"/>
<path d="M26.6661 13.7247C26.5428 13.7526 26.4212 13.7859 26.3019 13.8239C24.5135 14.3956 23.2176 16.082 23.2176 18.0733V18.0863C23.2178 18.1939 23.1089 18.2662 23.0114 18.2221L23.0092 18.2211C22.9261 18.1833 22.8534 18.135 22.7904 18.0784C22.269 17.6123 22.3794 16.5863 22.4384 16.2211C22.452 16.1357 22.4207 16.0492 22.3562 15.9919C21.4414 15.1816 20.8079 15.2553 20.8079 15.2553C20.8079 15.2553 20.4861 15.2372 20.1514 15.3819L20.1903 12.8935L21.4263 12.1965L22.0091 11.8682C23.0658 12.0179 23.844 12.9346 24.1028 13.2793C24.1561 13.3501 24.2536 13.3694 24.3293 13.3239C25.3147 12.7322 26.6078 12.9105 26.7963 13.1383C26.8297 13.1787 26.8541 13.2209 26.872 13.2635C26.8852 13.2955 26.8947 13.3275 26.9012 13.3588C26.9353 13.5249 26.8304 13.6876 26.6661 13.7247Z" fill="#EAB783"/>
<path d="M26.9016 13.3588C26.8952 13.3275 26.8856 13.2955 26.8725 13.2635C26.8546 13.2209 26.8302 13.1787 26.7967 13.1383C26.6082 12.9105 25.3151 12.7322 24.3298 13.3239C24.254 13.3694 24.1565 13.3501 24.1033 13.2793C23.8445 12.9346 23.0663 12.0179 22.0095 11.8682L21.4268 12.1965C22.8895 12.4219 23.5652 13.282 23.806 13.6838C23.8727 13.7952 24.0141 13.834 24.1286 13.7738C25.0033 13.3143 25.5791 13.3494 25.8487 13.4132C25.9108 13.4279 25.9172 13.5141 25.858 13.5377C25.3739 13.729 24.4361 14.1944 23.7023 15.2189C22.846 16.4144 22.7913 17.6398 22.7911 18.0601V18.0786C22.8541 18.1352 22.9268 18.1836 23.0099 18.2214L23.0121 18.2223C23.1091 18.2657 23.2183 18.1942 23.2183 18.0873V18.0736C23.2183 15.9496 24.6927 14.1725 26.6668 13.7249C26.8309 13.6876 26.9358 13.5249 26.9016 13.3588Z" fill="#F3CEA6"/>
<path d="M22.0089 11.8675C22.0089 11.8675 21.9525 12.0158 21.8684 12.2859C21.7902 12.2423 21.71 12.2197 21.628 12.2197C20.8414 12.2197 20.2025 14.3008 20.1904 16.8834C20.1901 16.9084 20.1901 16.9335 20.1901 16.9588C20.1901 19.1786 20.6532 20.5036 21.2782 20.855C20.6027 20.6812 19.1082 20.3408 18.234 20.4809C18.234 20.4809 18.3859 18.5288 18.1336 16.5979C17.9893 15.491 17.7122 14.3908 17.1973 13.6694C17.1973 13.6694 18.9157 11.7286 22.0089 11.8675Z" fill="#6C2400"/>
<path d="M21.2784 20.8548C20.6029 20.681 19.1084 20.3406 18.2341 20.4807C18.2341 20.4807 18.3861 18.5286 18.1338 16.5977C18.6284 16.7255 19.3793 16.8759 20.1905 16.8832C20.1903 16.9082 20.1903 16.9332 20.1903 16.9585C20.1903 19.1783 20.6533 20.5033 21.2784 20.8548Z" fill="#511100"/>
<path d="M2.64599 16.2601C2.64599 16.2601 2.10768 17.861 3.56516 18.3904C5.02288 18.9195 7.9775 18.0199 7.9775 18.0199L17.4024 15.1891C17.5551 15.1433 17.7087 15.1017 17.8638 15.0646C18.5115 14.9096 20.59 14.3513 21.241 13.4286C22.0159 12.3304 22.3967 11.4969 22.0092 11.0138C21.7387 10.6768 19.5528 10.9495 18.2566 11.1452C17.6291 11.2398 16.995 11.2788 16.3609 11.2598C14.2616 11.1972 9.18697 11.2032 6.74342 12.5685C3.61773 14.3152 2.64599 16.2601 2.64599 16.2601Z" fill="#190E07"/>
<path d="M18.8576 14.1777C18.8576 14.1777 19.7876 14.2093 19.7524 15.3648C19.7271 16.2018 19.201 16.4835 18.9131 16.5752C18.8111 16.6077 18.7021 16.5543 18.6658 16.4529C18.4899 15.9611 18.0532 14.5162 18.8576 14.1777Z" fill="#F3CEA6"/>
<path d="M18.7235 14.625C18.7235 14.625 19.3873 14.6476 19.3624 15.4724C19.3443 16.0699 18.9689 16.2709 18.7632 16.3364C18.6903 16.3595 18.6127 16.3215 18.5866 16.249C18.4609 15.898 18.1491 14.8665 18.7235 14.625Z" fill="#C69B8B"/>
<path d="M18.7069 17.5969C18.7069 17.5969 18.7678 17.7712 18.8128 18.0837C18.8343 18.2327 18.852 18.4132 18.8579 18.6212C18.877 19.3042 18.7669 20.2835 18.2317 21.4207C17.6571 22.6415 16.704 23.2888 15.9661 23.6237C15.7886 23.7043 15.6235 23.7669 15.4792 23.8148C15.3031 23.8733 15.1559 23.6718 15.2634 23.5197C15.6192 23.0163 15.8338 22.5226 15.9339 22.2611C15.9439 22.2344 15.9088 22.2149 15.8918 22.2378C15.4935 22.7763 14.5268 23.5093 13.1652 23.8553C12.1605 24.1107 11.6147 24.6531 11.3622 24.9875C11.3622 24.9875 11.3622 24.9875 11.3619 24.9877C11.2752 25.1025 11.1378 25.155 11.005 25.1382C10.9433 25.1302 10.8826 25.1073 10.8282 25.0686C9.97256 24.4588 9.94675 23.407 9.96921 23.0202C9.97232 22.9658 9.91044 22.933 9.86767 22.9665C9.05506 23.6071 8.27997 23.6247 7.83126 23.556C7.66281 23.5303 7.59113 23.329 7.702 23.1988C8.3894 22.3914 8.2556 21.1319 8.19778 20.7628C8.19228 20.7269 8.14569 20.718 8.12706 20.7488C7.91106 21.1039 7.60475 21.3827 7.38685 21.5536C7.23106 21.6757 7.0036 21.6165 6.9226 21.4354C6.6409 20.8059 6.82178 19.9289 6.88318 19.6778C6.88892 19.6542 6.86239 19.6364 6.8428 19.6504C6.24285 20.0741 5.76666 20.1427 5.43263 20.0981C5.17626 20.064 5.07925 19.7407 5.27016 19.5649C5.47014 19.3808 5.70382 19.1078 5.95183 18.686C6.30473 18.0854 6.53625 17.4212 6.65118 16.7332C6.99046 14.703 8.04463 12.5059 8.04463 12.5059C8.22454 12.2793 8.44197 12.151 8.65963 12.0824C9.18982 11.9156 9.7224 12.105 9.7224 12.105C8.83859 14.0254 10.0137 14.9693 10.4139 15.223C10.4867 15.2693 10.5238 15.3559 10.507 15.4409C10.2093 16.9445 11.0289 17.492 11.3629 17.6492C11.4403 17.6857 11.527 17.6975 11.6114 17.6824L17.8535 16.5649C18.3347 15.666 18.1576 14.8826 18.047 14.5625C18.0107 14.4577 18.0143 14.3439 18.0532 14.2404C18.5882 12.8188 17.75 11.9601 17.75 11.9601C17.75 11.9601 17.8472 11.3296 18.1626 11.3017C18.3084 11.289 18.501 11.405 18.7521 11.7724C19.4027 12.7245 19.018 13.8157 18.8582 14.1782C18.8218 14.2611 18.8173 14.3542 18.8441 14.4409C19.4065 16.2505 18.7069 17.5969 18.7069 17.5969Z" fill="#DB975F"/>
<path d="M18.8575 18.6215C18.4148 18.7207 17.9599 18.7542 17.5919 18.7604C17.2056 18.7672 16.8204 18.7111 16.4532 18.59C16.042 18.4542 15.5371 18.3541 15.5371 18.3541L18.8124 18.084C18.8339 18.233 18.8516 18.4135 18.8575 18.6215Z" fill="#D0743F"/>
<path d="M11.005 25.1378C10.9433 25.1298 10.8826 25.107 10.8282 25.0682C9.97256 24.4584 9.94675 23.4067 9.96921 23.0198C9.97232 22.9654 9.91044 22.9326 9.86767 22.9661C9.05506 23.6067 8.27997 23.6243 7.83126 23.5557C7.66281 23.5299 7.59113 23.3287 7.702 23.1984C8.3894 22.391 8.2556 21.1315 8.19778 20.7624C8.19228 20.7266 8.14569 20.7177 8.12706 20.7485C7.91106 21.1035 7.60475 21.3823 7.38685 21.5532C7.23106 21.6753 7.0036 21.6161 6.9226 21.435C6.6409 20.8055 6.82178 19.9285 6.88318 19.6774C6.88892 19.6538 6.86239 19.636 6.8428 19.65C6.24285 20.0737 5.76666 20.1423 5.43263 20.0978C5.17626 20.0636 5.07925 19.7403 5.27016 19.5645C5.47014 19.3804 5.70382 19.1074 5.95183 18.6856C6.30473 18.085 6.53625 17.4208 6.65118 16.7328C6.99046 14.7027 8.04462 12.5055 8.04462 12.5055C8.22454 12.279 8.44197 12.1506 8.65963 12.082C7.67595 14.6251 8.94109 17.3654 9.13367 17.1998C8.43719 18.0005 8.20949 18.9858 8.139 19.4329C8.12276 19.5361 8.23434 19.6103 8.3225 19.5551C8.91314 19.1859 9.39626 18.5573 9.39626 18.5573C9.58239 19.8854 9.37834 21.3951 9.28277 21.9789C9.26341 22.0961 9.37547 22.1929 9.48681 22.1541C10.3974 21.8392 10.9362 21.1401 10.9541 21.1168C10.3771 22.1577 10.6745 24.0008 10.7797 24.6005C10.7797 24.6005 10.8344 24.9649 11.005 25.1378Z" fill="#D0743F"/>
<path d="M9.77525 17.7772C9.78147 17.8369 9.75375 17.8949 9.70429 17.925C9.43358 18.0909 8.53639 18.5617 8.03775 17.8665C7.46574 17.0692 7.55988 15.9989 8.36508 15.3532C8.41526 15.313 8.4867 15.3183 8.53281 15.3645C8.56507 15.3968 8.60592 15.4387 8.65275 15.4895C8.96456 15.8287 9.54946 16.567 9.73392 17.5032C9.7516 17.593 9.76546 17.6843 9.77525 17.7772Z" fill="#F3CEA6"/>
<path d="M9.73432 17.503C9.7348 17.5471 9.71377 17.5875 9.67913 17.6099C9.46887 17.7435 8.77191 18.1222 8.37935 17.5533C7.92896 16.9004 7.99682 16.0285 8.62138 15.5066C8.63118 15.4984 8.64193 15.4926 8.6534 15.4893C8.96496 15.8287 9.54987 16.567 9.73432 17.503Z" fill="#EAB783"/>
<path d="M18.3195 14.6013C18.7381 16.0151 17.9324 17.2005 17.9324 17.2005C17.8246 17.0667 17.7145 16.9509 17.6029 16.8507C16.3695 15.745 14.9778 16.5854 14.9778 16.5854C13.8892 16.0144 12.8307 16.7835 12.1849 17.4485C11.7909 17.8543 11.5503 18.2212 11.5503 18.2212C10.2897 17.9689 10.1005 16.5045 10.0754 15.9287C10.0689 15.7828 10.0037 15.6458 9.89594 15.5481C8.43726 14.2226 9.18655 12.1436 9.18655 12.1436C9.71746 11.8625 11.1577 11.6959 12.4355 11.6682C13.2438 11.6506 13.9872 11.6889 14.3948 11.7888C15.1799 11.9814 16.9062 11.8201 17.7314 11.726C18.0119 11.6939 18.1885 11.6696 18.1885 11.6696C18.7935 12.6802 18.4721 13.8685 18.3266 14.2871C18.2913 14.3885 18.2889 14.4985 18.3195 14.6013Z" fill="#F3CEA6"/>
<path d="M13.6624 12.0695L13.5019 11.6807L12.4104 11.694L12.4355 11.668C11.1577 11.6957 9.71746 11.8622 9.18655 12.1434C9.18655 12.1434 8.43726 14.2224 9.89594 15.5479C10.0037 15.6456 10.0689 15.7826 10.0754 15.9285C10.1005 16.5043 10.2897 17.9687 11.5503 18.221C11.5503 18.221 11.7909 17.8541 12.1849 17.4482L11.8523 17.3589C10.6849 17.0123 10.7833 15.9179 10.8736 15.481C10.898 15.3635 10.8739 15.2407 10.8065 15.1418C9.92604 13.8485 10.7262 12.909 11.4129 12.4017C11.4127 12.4017 12.0716 11.927 13.6624 12.0695Z" fill="#EAB783"/>
<path d="M13.3512 13.3698C13.362 13.3503 13.3613 13.3265 13.3522 13.306C13.2937 13.1755 12.9909 12.5609 12.4435 12.4902C12.0101 12.4175 11.0319 12.8671 10.7428 13.4295C10.5522 13.8007 10.6047 14.3481 10.6776 14.736C10.7034 14.8739 10.8874 14.9028 10.9536 14.7793C11.2319 14.2581 11.8414 13.3931 12.8113 13.4163C12.8113 13.4163 13.0738 13.4384 13.017 13.2444C13.0167 13.2444 13.2891 13.4815 13.3512 13.3698Z" fill="#D0743F"/>
<path d="M15.3866 13.1842C15.3728 13.1697 15.3678 13.1488 15.3711 13.1291C15.3917 13.0022 15.5121 12.3977 15.9706 12.2075C16.3297 12.0424 17.2826 12.2027 17.6637 12.6225C17.9153 12.8999 17.9963 13.3869 18.023 13.7408C18.0326 13.8667 17.8797 13.935 17.7936 13.8431C17.4314 13.4564 16.7022 12.8493 15.8662 13.0973C15.8662 13.0973 15.6435 13.1782 15.6478 12.9964C15.6476 12.9964 15.4665 13.2663 15.3866 13.1842Z" fill="#D0743F"/>
<path d="M13.4043 19.0235C13.4043 19.0235 13.6745 19.8271 14.4188 19.7373C14.4969 19.7279 14.5734 19.7069 14.6472 19.6795C15.1927 19.4765 15.4746 19.3884 16.082 19.4166C16.2251 19.4231 16.3656 19.3704 16.4672 19.2688C16.6375 19.0983 16.8494 18.8049 16.7682 18.4505C16.7682 18.4505 15.0383 17.2717 13.4043 19.0235Z" fill="#190E07"/>
<path d="M15.5702 19.2677C15.6024 19.2679 15.6211 19.2309 15.6017 19.2049C15.4318 18.9757 15.1229 18.8195 14.7669 18.8127C14.3641 18.8053 14.014 18.9921 13.8554 19.266C13.8322 19.306 13.8418 19.357 13.8778 19.3857C14.0016 19.4841 14.1681 19.5539 14.3853 19.5284C14.4477 19.5212 14.5086 19.5048 14.5674 19.4832C14.9588 19.3375 15.1807 19.2655 15.5702 19.2677Z" fill="#D6B5A5"/>
<path d="M22.009 11.0137C21.9958 10.9918 21.7478 10.6435 19.6653 11.4711C19.0802 11.728 18.3402 11.8905 17.5414 11.9872C17.5414 11.9872 17.5403 11.9872 17.5381 11.9875C15.8338 12.194 13.8626 12.1026 12.5585 11.9964C10.7744 11.851 8.97768 12.1057 7.31305 12.7682C5.71555 13.404 3.93337 14.4719 2.64648 16.2603C2.67157 16.2133 4.28125 13.2082 6.80245 12.0267C7.6779 11.0132 8.21955 9.87673 8.22648 8.54354C8.22768 8.33266 8.03964 8.17088 7.83368 8.20988C7.46764 8.27921 6.88297 8.4511 6.28373 8.87792C5.79273 9.22747 5.36385 9.25804 5.05706 9.20075C4.74764 9.14321 4.56271 8.82544 4.6645 8.52549C5.2353 6.84227 8.07978 4.1682 11.1938 3.50449C11.5096 3.43709 11.8279 3.40314 12.1435 3.40146C13.434 3.39351 14.6857 3.92096 15.5789 4.89858C16.4278 5.82782 17.2841 7.14463 17.875 8.67931C17.9455 8.86203 17.9691 9.27128 18.0021 9.36733C18.0876 9.61866 18.0458 9.54644 18.2456 9.71977C18.6477 10.0686 19.4378 10.5614 20.7424 10.6338C20.7871 10.6362 20.8315 10.637 20.8762 10.637C21.0893 10.6377 21.8558 10.6642 22.009 11.0137Z" fill="#6C2400"/>
<path d="M17.5357 11.9876C15.8319 12.1939 13.8619 12.1025 12.5585 11.9963C10.7744 11.8509 8.97768 12.1056 7.31305 12.7681C5.71555 13.4039 3.93337 14.4718 2.64648 16.2602C2.67157 16.2132 4.28125 13.2082 6.80245 12.0266C7.67789 11.0131 8.21955 9.87664 8.22648 8.54345C8.22672 8.51192 8.22266 8.48158 8.21501 8.4527C8.17105 8.28876 8.00881 8.17657 7.83368 8.20979C7.46763 8.27913 6.88297 8.45101 6.28373 8.87783C5.79273 9.22738 5.36385 9.25795 5.05706 9.20066C4.91227 9.1737 4.79471 9.08992 4.72112 8.9775C4.63726 8.84967 4.61026 8.685 4.6645 8.5254C5.2353 6.84218 8.07978 4.16811 11.1938 3.5044C11.5096 3.437 11.8279 3.40305 12.1435 3.40137C11.7192 3.4045 11.4857 3.53088 11.3584 3.6811C11.1902 3.87995 11.2074 4.17774 11.3906 4.36262C13.1669 6.15224 13.4954 7.10699 13.3585 9.64505C13.2204 12.2089 17.3587 11.9978 17.5357 11.9876Z" fill="#511100"/>
<path d="M8.21459 8.4531C8.17063 8.28916 8.00839 8.17698 7.83326 8.2102C7.46722 8.27953 6.88255 8.45142 6.28331 8.87824C5.79231 9.22779 5.36343 9.25836 5.05664 9.20106C4.91185 9.1741 4.79429 9.09033 4.7207 8.9779C4.73074 8.91724 4.74794 8.85513 4.77327 8.79206C4.97206 8.29759 5.59113 7.86595 5.97414 7.63701C6.24222 7.47668 6.54279 7.37702 6.85412 7.35728C7.93289 7.28915 8.16681 8.16446 8.21459 8.4531Z" fill="#381405"/>
<path d="M18.6729 10.0311C18.6729 10.0311 16.6898 9.8007 14.9293 9.78289C14.6056 9.77951 14.2892 9.78337 13.9944 9.79709C13.5595 9.81755 13.1708 9.85944 12.8721 9.93166C11.2699 10.3197 6.8028 12.0265 6.8028 12.0265C6.8028 12.0265 6.7175 11.7401 6.75262 11.6077C6.78751 11.4752 6.96264 11.3871 6.96264 11.3871C6.96264 11.3871 7.03265 11.2196 7.20779 11.1401C7.38292 11.0607 10.9724 9.03637 12.5613 8.62616C13.5332 8.37531 15.2629 8.54479 16.4599 8.71402C16.4604 8.71402 16.4611 8.71427 16.4616 8.71427C17.2204 8.82187 17.765 8.92924 17.765 8.92924C17.765 8.92924 17.8543 8.942 17.9604 8.98726L17.9614 8.98774C18.0094 9.0082 18.0608 9.03541 18.1088 9.07103C18.1981 9.13675 18.276 9.23184 18.2999 9.36714C18.2999 9.36714 18.7178 9.50436 18.6729 10.0311Z" fill="#DB975F"/>
<path d="M13.9077 9.02C14.5423 9.0862 14.9293 9.27903 14.9293 9.27903C14.66 9.30382 14.4209 9.34427 14.2161 9.38928C14.0644 9.42275 14.0751 9.64494 14.2295 9.66324C14.6103 9.70874 14.9293 9.78289 14.9293 9.78289C14.6056 9.77951 14.2892 9.78337 13.9944 9.79709C13.5595 9.81755 13.1708 9.85944 12.8721 9.93166C11.2699 10.3197 6.8028 12.0265 6.8028 12.0265C6.8028 12.0265 6.7175 11.7401 6.75262 11.6077C6.78751 11.4752 6.96264 11.3871 6.96264 11.3871C6.96264 11.3871 7.03265 11.2196 7.20779 11.1401C7.38292 11.0607 10.9724 9.03637 12.5613 8.62616C13.5332 8.37531 15.2629 8.54479 16.4599 8.71402C15.3962 8.59414 14.5129 8.67599 13.8986 8.78673C13.765 8.8108 13.7729 9.00604 13.9077 9.02Z" fill="#D0743F"/>
<path d="M25.0581 5.33291H24.8959V5.16945C24.8959 5.01755 24.7738 4.89453 24.623 4.89453C24.4722 4.89453 24.3501 5.01755 24.3501 5.16945V5.33291H24.1879C24.0371 5.33291 23.915 5.45592 23.915 5.60783C23.915 5.75973 24.0371 5.88275 24.1879 5.88275H24.3501V6.0462C24.3501 6.19811 24.4722 6.32112 24.623 6.32112C24.7738 6.32112 24.8959 6.19811 24.8959 6.0462V5.88275H25.0581C25.2089 5.88275 25.3309 5.75973 25.3309 5.60783C25.3309 5.45616 25.2089 5.33291 25.0581 5.33291Z" fill="#DB975F"/>
<path d="M24.604 10.2265H24.4418V10.063C24.4418 9.9111 24.3197 9.78809 24.1689 9.78809C24.0181 9.78809 23.896 9.9111 23.896 10.063V10.2265H23.7338C23.583 10.2265 23.4609 10.3495 23.4609 10.5014C23.4609 10.6533 23.583 10.7763 23.7338 10.7763H23.896V10.9398C23.896 11.0917 24.0181 11.2147 24.1689 11.2147C24.3197 11.2147 24.4418 11.0917 24.4418 10.9398V10.7763H24.604C24.7547 10.7763 24.8768 10.6533 24.8768 10.5014C24.8768 10.3495 24.7547 10.2265 24.604 10.2265Z" fill="#DB975F"/>
<path d="M18.8387 6.43026C18.7293 6.25236 18.5814 6.12911 18.4072 6.04316C18.5592 5.92496 18.6839 5.77619 18.7914 5.6084C18.9083 5.76849 19.0516 5.898 19.2229 5.9955C19.0597 6.11274 18.9319 6.2579 18.8387 6.43026Z" fill="white"/>
<path d="M26.8885 12.2203C26.7791 12.0424 26.6312 11.9191 26.457 11.8332C26.609 11.715 26.7337 11.5662 26.8412 11.3984C26.9581 11.5585 27.1014 11.688 27.2727 11.7855C27.1096 11.9028 26.9817 12.0479 26.8885 12.2203Z" fill="white"/>
<path d="M23.6493 8.28769C23.5399 8.10979 23.392 7.98653 23.2178 7.90059C23.3697 7.78239 23.4945 7.63361 23.602 7.46582C23.7188 7.62591 23.8622 7.75542 24.0335 7.85292C23.8703 7.97016 23.7427 8.11532 23.6493 8.28769Z" fill="white"/>
<path opacity="0.4" d="M26.7814 7.17164C26.8236 6.99153 26.7129 6.81104 26.5342 6.76851C26.3554 6.72598 26.1763 6.83752 26.134 7.01763C26.0918 7.19774 26.2025 7.37823 26.3813 7.42076C26.5601 7.46329 26.7392 7.35175 26.7814 7.17164Z" fill="#D8C069"/>
<path opacity="0.4" d="M20.475 9.58746C20.5136 9.40652 20.3993 9.22834 20.2197 9.18949C20.0401 9.15065 19.8632 9.26584 19.8247 9.44679C19.7861 9.62773 19.9005 9.80591 20.0801 9.84475C20.2596 9.8836 20.4365 9.76841 20.475 9.58746Z" fill="#D8C069"/>
<path d="M29.4356 12.292L29.3828 12.2973C29.4003 12.2949 29.4179 12.293 29.4356 12.292Z" fill="#E2B1E5"/>
<path d="M20.3821 16.7336L20.3849 16.7534C20.3828 16.7468 20.3818 16.74 20.3818 16.7334L20.3821 16.7336Z" fill="#E2B1E5"/>
<path d="M19.7605 17.5554C19.1596 18.2849 18.2416 18.5083 17.5623 18.5656C17.3456 18.5839 17.1531 18.5853 17.003 18.5807C16.8343 18.5757 16.6675 18.5482 16.5056 18.5006C16.2774 18.4334 15.8184 18.3328 15.1611 18.3506C14.9609 18.3593 14.752 18.4223 14.5616 18.5035C14.3325 18.6009 14.1299 18.7247 13.9996 18.8118C13.993 18.8164 13.9863 18.8207 13.9798 18.8251C13.8496 18.9137 13.7134 18.9936 13.5708 19.0603C12.1314 19.7326 10.6852 19.5275 9.93089 19.3374C9.76411 19.2952 9.74452 19.0663 9.90054 18.9933C11.3442 18.3195 12.0476 16.5015 13.2308 15.9293C14.2419 15.3869 15.0036 16.0617 15.0036 16.0617C15.3649 15.7249 15.7242 15.5906 16.0707 15.5889C16.2661 15.5879 16.457 15.6291 16.6417 15.6999L16.6422 15.7001C17.0467 15.8549 17.4207 16.1512 17.7415 16.456C17.8452 16.5545 17.9549 16.6464 18.0737 16.7259C18.6686 17.1236 19.2619 17.2249 19.6248 17.2449C19.7794 17.2536 19.8592 17.4356 19.7605 17.5554Z" fill="#DB975F"/>
<path d="M15.0036 16.0621C15.0036 16.0621 13.5665 15.5513 12.6896 17.1562C11.8125 18.7612 11.1165 19.039 11.1165 19.039C11.1165 19.039 12.33 19.5994 13.9996 18.8122C13.9045 18.876 13.8479 18.9201 13.8479 18.9201C12.3202 19.7595 10.7337 19.5402 9.93089 19.3378C9.76411 19.2956 9.74452 19.0667 9.90054 18.9938C11.3442 18.3199 12.0476 16.5019 13.2308 15.9297C14.2419 15.3873 15.0036 16.0621 15.0036 16.0621Z" fill="#D0743F"/>
<path d="M16.0712 15.5891C16.0712 15.5891 15.3255 15.8498 15.2796 16.4189C15.2796 16.4189 15.2271 16.1938 15.0039 16.0617C15.3652 15.7249 15.7245 15.5906 16.071 15.5889L16.0712 15.5891Z" fill="#D0743F"/>
<path opacity="0.4" d="M29.3048 19.8234C30.2427 18.8784 30.2427 17.3462 29.3048 16.4012C28.3668 15.4562 26.8462 15.4562 25.9082 16.4012C24.9703 17.3462 24.9703 18.8784 25.9082 19.8234C26.8462 20.7684 28.3668 20.7684 29.3048 19.8234Z" fill="#FFF0CF"/>
<path d="M29.1337 18.3814C29.3042 17.5618 28.783 16.758 27.9695 16.5862C27.156 16.4143 26.3583 16.9394 26.1877 17.7591C26.0172 18.5787 26.5384 19.3825 27.3519 19.5543C28.1654 19.7262 28.9631 19.201 29.1337 18.3814Z" fill="white"/>
<path d="M21.6281 20.9501C21.5075 20.9501 21.3904 20.9183 21.2783 20.8555C21.4955 20.9113 21.6281 20.9501 21.6281 20.9501Z" fill="#0E1C08"/>
<path d="M14.0289 15.2279C13.8963 15.1704 13.7639 15.1232 13.6294 15.0914C13.4954 15.0592 13.3599 15.0423 13.2258 15.0399C12.958 15.0356 12.6937 15.0919 12.4632 15.2041C12.2326 15.3163 12.0374 15.4816 11.9055 15.6865C11.8403 15.7893 11.7911 15.9022 11.7598 16.0235C11.7282 16.1449 11.716 16.2741 11.7156 16.4102V16.414C11.7153 16.4735 11.6635 16.5216 11.5999 16.5214C11.5521 16.5211 11.5113 16.4939 11.4938 16.4552C11.4293 16.311 11.3968 16.1504 11.3985 15.9867C11.4004 15.823 11.4377 15.6559 11.5096 15.5023C11.5815 15.3485 11.685 15.2074 11.8109 15.0888C11.9361 14.9694 12.0835 14.8719 12.2414 14.798C12.5576 14.6494 12.92 14.5955 13.2631 14.6424C13.6065 14.6882 13.9276 14.8343 14.1653 15.0481C14.2129 15.0909 14.2143 15.1615 14.1687 15.206C14.1323 15.2411 14.0774 15.2493 14.0325 15.2301L14.0289 15.2279Z" fill="#190E07"/>
<path d="M15.4899 14.9751C15.5714 14.8641 15.6706 14.7654 15.7802 14.6793C15.8902 14.5936 16.0106 14.5194 16.1391 14.4624C16.3955 14.3468 16.6791 14.2881 16.9663 14.2967C17.1099 14.3016 17.2549 14.3227 17.3961 14.3682C17.5373 14.4128 17.675 14.4814 17.7968 14.5784C17.8121 14.5902 17.8272 14.6025 17.8415 14.6162L17.8843 14.6564C17.8986 14.6694 17.911 14.6858 17.9242 14.7002C17.9371 14.7154 17.9502 14.7301 17.9624 14.7455C18.0092 14.81 18.052 14.8779 18.08 14.9527C18.1392 15.1005 18.1526 15.2614 18.1218 15.4041C18.1089 15.4633 18.0508 15.5009 17.992 15.4881C17.95 15.479 17.9189 15.4465 17.9094 15.407L17.9082 15.4019C17.8527 15.1742 17.7316 15.0201 17.5565 14.9212C17.383 14.8213 17.1684 14.7705 16.9481 14.7597C16.7271 14.7491 16.5001 14.7794 16.2801 14.8422C16.0591 14.9053 15.8493 15.0071 15.6436 15.1374L15.6407 15.1393C15.5879 15.1728 15.5181 15.1566 15.4849 15.1034C15.4596 15.0625 15.4632 15.0117 15.4899 14.9751Z" fill="#190E07"/>
</svg>
