<svg width="30" height="30" viewBox="0 0 30 30" fill="none" xmlns="http://www.w3.org/2000/svg">
<path opacity="0.3" d="M27.4076 14.0002C27.4076 19.9793 23.1789 24.9707 17.5488 26.1465C16.726 26.3183 15.8731 26.4086 14.9992 26.4086C11.1576 26.4086 7.72376 24.6628 5.44761 21.9213C3.66353 19.7723 2.59082 17.0116 2.59082 14.0002C2.59082 7.14722 8.14625 1.5918 14.9992 1.5918C21.8522 1.5918 27.4076 7.14722 27.4076 14.0002Z" fill="#B341B1"/>
<path d="M19.2748 10.4293C18.6188 11.3521 16.5246 11.9106 15.872 12.0654C15.716 12.1024 15.561 12.1441 15.4071 12.1898L15.002 12.3107L5.91112 15.0206C5.91112 15.0206 2.9342 15.9205 1.46548 15.3911C-0.00323468 14.862 0.53938 13.2608 0.53938 13.2608C0.53938 13.2608 1.51845 11.316 4.66773 9.56943C7.12948 8.20422 12.2427 8.1982 14.3578 8.26079C14.9967 8.27957 15.6356 8.24081 16.2678 8.14621C17.5716 7.95073 19.7688 7.6787 20.0473 8.01308C20.0478 8.01356 20.0482 8.01428 20.0487 8.01476C20.439 8.49768 20.0555 9.33134 19.2748 10.4293Z" fill="#1C081E"/>
<path d="M22.7496 16.1581C22.7496 16.1581 22.7369 16.5137 22.5866 17.0561C22.4641 17.4995 22.2496 18.0681 21.875 18.6692C21.0452 20.0019 19.4289 21.4947 16.284 22.1411C16.284 22.1411 15.8759 19.2807 15.2861 18.5662C15.2861 18.5662 15.9075 17.8255 16.3723 17.0806C16.4886 16.8948 16.5948 16.7087 16.6793 16.5339C16.7941 16.2966 16.8687 16.0797 16.8728 15.9121C16.8728 15.9121 18.7539 18.1957 22.7496 16.1581Z" fill="#7C3382"/>
<path d="M21.875 18.6697C21.0452 20.0024 19.4289 21.4952 16.284 22.1415C16.284 22.1415 15.8759 19.2811 15.2861 18.5666C15.2861 18.5666 15.9075 17.8259 16.3723 17.0811C17.1352 17.8394 19.1287 19.4263 21.875 18.6697Z" fill="#462766"/>
<path d="M17.5538 26.1451L17.5495 26.1463C16.7266 26.3182 15.8737 26.4085 14.9999 26.4085C12.0617 26.4085 9.36234 25.3873 7.23666 23.6805C6.58306 23.1557 5.98364 22.5661 5.44824 21.9212C5.67068 20.94 6.12134 19.6308 7.00965 18.8906C7.75351 18.2707 9.50823 17.8342 11.2374 17.601C12.3826 17.4464 13.5165 17.3809 14.3378 17.4101C15.08 17.4365 15.7651 17.822 16.1667 18.4471C16.8838 19.5632 17.8381 21.8875 17.5538 26.1451Z" fill="#7C3382"/>
<path d="M15.2868 19.741C15.2868 19.741 14.2216 20.98 12.6125 21.2518C12.5174 21.2677 12.4539 21.1567 12.5148 21.0821C12.5721 21.0118 12.6368 20.9261 12.7004 20.8286C12.7225 20.7946 12.6845 20.7532 12.6488 20.7732C12.4315 20.896 11.9628 21.1254 11.3282 21.2417C11.0005 21.3019 10.6948 21.4521 10.4476 21.6753C10.189 21.9085 9.89244 22.2595 9.67867 22.7602L7.23666 23.6801C6.58306 23.1553 5.98364 22.5657 5.44824 21.9208C5.67068 20.9396 6.12134 19.6305 7.00965 18.8902C7.75351 18.2703 9.50823 17.8339 11.2374 17.6006L12.7839 17.6993L14.1898 18.0963L15.2868 19.741Z" fill="#572866"/>
<path d="M10.5984 21.2275C10.5984 21.2275 11.8457 22.3975 13.9745 22.6103C13.9745 22.6103 11.4617 22.8217 10.1016 21.4801" fill="#572866"/>
<path d="M15.9272 29.6935C16.9112 29.6935 17.7089 28.2052 17.7089 26.3692C17.7089 24.5333 16.9112 23.0449 15.9272 23.0449C14.9432 23.0449 14.1455 24.5333 14.1455 26.3692C14.1455 28.2052 14.9432 29.6935 15.9272 29.6935Z" fill="#1C081E"/>
<path d="M15.8472 29.689C15.457 29.625 9.12446 28.5031 6.53031 23.0695C6.37094 22.6213 6.33699 22.153 6.43425 21.7498C6.46434 21.6242 6.50744 21.5045 6.56353 21.394C6.71952 21.0864 6.9759 20.8473 7.33652 20.7325C7.34928 20.7284 7.36204 20.7245 7.3748 20.7209C7.7282 20.6198 8.10856 20.666 8.43475 20.8379C8.47231 20.8577 8.51299 20.8788 8.55705 20.9015C9.66587 21.4723 12.7851 22.9097 15.4411 22.5433C15.4416 22.543 15.442 22.543 15.4423 22.543C15.1626 22.6044 14.931 22.8904 14.7535 23.3158C14.4998 23.9239 14.3571 24.8163 14.3421 25.7424C14.3323 26.3529 14.378 26.9778 14.4839 27.5457C14.6922 28.663 15.1344 29.5592 15.8472 29.689Z" fill="#572866"/>
<path d="M8.557 20.9015C8.51294 20.8788 8.47226 20.8577 8.4347 20.8379C8.10851 20.666 7.72815 20.6198 7.37475 20.7209C7.36199 20.7245 7.34923 20.7284 7.33647 20.7325C6.97585 20.8473 6.71947 21.0864 6.56348 21.394H6.56372C6.56372 21.394 7.34345 20.8215 8.36826 21.4176C9.54473 22.1699 11.3676 23.0972 13.3666 23.2373C13.8847 23.2737 14.345 23.2989 14.7535 23.3158C14.9312 22.8897 15.1632 22.6035 15.4437 22.5428C12.7869 22.9109 9.66606 21.4725 8.557 20.9015Z" fill="#7C3382"/>
<path d="M16.8729 11.1787C16.8729 11.1787 17.8098 11.2102 17.7745 12.3658C17.7489 13.2028 17.2188 13.4845 16.9288 13.5762C16.826 13.6087 16.7162 13.5552 16.6796 13.4539C16.5024 12.9621 16.0623 11.5172 16.8729 11.1787Z" fill="#F2D3B8"/>
<path d="M16.7378 11.626C16.7378 11.626 17.4065 11.6486 17.3815 12.4734C17.3632 13.0709 16.985 13.2719 16.7777 13.3374C16.7043 13.3605 16.6261 13.3224 16.5998 13.25C16.4732 12.899 16.159 11.8674 16.7378 11.626Z" fill="#EAB783"/>
<path d="M16.7212 14.5969C16.7212 14.5969 16.7826 14.7712 16.8278 15.0837C16.8495 15.2327 16.8673 15.4132 16.8733 15.6212C16.8926 16.3042 16.7816 17.2835 16.2424 18.4207C15.6634 19.6415 14.7031 20.2888 13.9597 20.6237C13.9258 20.6391 13.8926 20.6535 13.8596 20.6675H13.8593C13.7185 20.7275 13.5868 20.7761 13.4691 20.8148C13.2917 20.8733 13.1434 20.6718 13.2517 20.5197C13.6102 20.0163 13.8264 19.5226 13.9272 19.2611C13.9373 19.2344 13.902 19.2149 13.8849 19.2378C13.4836 19.7763 12.5096 20.5093 11.1376 20.8553C10.1253 21.1107 9.57548 21.6531 9.32102 21.9875C9.32102 21.9875 9.32102 21.9875 9.32078 21.9877C9.2334 22.1025 9.09497 22.155 8.96113 22.1382C8.89902 22.1302 8.83787 22.1073 8.78298 22.0686C7.92091 21.4588 7.89492 20.407 7.91754 20.0202C7.92067 19.9658 7.85832 19.933 7.81523 19.9665C6.99649 20.6071 6.21555 20.6247 5.76345 20.556C5.59374 20.5303 5.52152 20.329 5.63322 20.1988C6.32581 19.3914 6.191 18.1319 6.13274 17.7628C6.1272 17.7269 6.08026 17.718 6.06148 17.7488C5.84386 18.1039 5.53524 18.3827 5.31569 18.5536C5.15873 18.6757 4.92955 18.6165 4.84794 18.4354C4.56412 17.8059 4.74635 16.9289 4.80822 16.6778C4.814 16.6542 4.78728 16.6364 4.76754 16.6504C4.16305 17.0741 3.68327 17.1427 3.34672 17.0981C3.08841 17.064 2.99068 16.7407 3.18302 16.5649C3.38452 16.3808 3.61996 16.1078 3.86984 15.686C4.2254 15.0854 4.45867 14.4212 4.57447 13.7332C4.91631 11.703 5.97843 9.50587 5.97843 9.50587C6.1597 9.27934 6.37877 9.15102 6.59808 9.08242C7.13227 8.91559 7.66887 9.10504 7.66887 9.10504C6.77839 11.0254 7.96232 11.9693 8.36555 12.223C8.43897 12.2693 8.47629 12.3559 8.45944 12.4409C8.15948 13.9445 8.9852 14.492 9.32175 14.6492C9.39975 14.6857 9.48713 14.6975 9.57211 14.6824L15.8613 13.5649C16.3461 12.666 16.1677 11.8826 16.0563 11.5625C16.0197 11.4577 16.0233 11.3439 16.0625 11.2404C16.6016 9.81882 15.7571 8.96012 15.7571 8.96012C15.7571 8.96012 15.855 8.32964 16.1728 8.30171C16.3197 8.28896 16.5137 8.40499 16.7667 8.77235C16.9677 9.06436 17.0707 9.36961 17.1121 9.66283C17.2058 10.3253 16.9853 10.9269 16.8736 11.1782C16.837 11.2611 16.8324 11.3542 16.8594 11.4409C17.4261 13.2505 16.7212 14.5969 16.7212 14.5969Z" fill="#DE8BEA"/>
<path d="M16.721 14.5974C16.721 14.5974 16.7824 14.7717 16.8276 15.0842C16.8493 15.2332 16.8671 15.4137 16.8731 15.6217C16.8924 16.3047 16.7814 17.284 16.2422 18.4212C15.6632 19.642 14.7029 20.2893 13.9595 20.6242C13.9256 20.6396 13.8924 20.654 13.8594 20.668C16.5809 19.0512 16.428 15.7464 16.3375 14.8856C16.3238 14.7553 16.3515 14.6237 16.4174 14.5105C17.0489 13.4287 16.746 11.9888 16.6098 11.4857C16.5804 11.3776 16.596 11.2623 16.6541 11.1665C16.9538 10.6713 17.1117 9.66309 17.1117 9.66309L17.1119 9.66333C17.2056 10.3258 16.9851 10.9274 16.8734 11.1787C16.8368 11.2616 16.8322 11.3547 16.8592 11.4414C17.4259 13.251 16.721 14.5974 16.721 14.5974Z" fill="#EAC5ED"/>
<path d="M16.8728 15.6215C16.4267 15.7207 15.9684 15.7542 15.5977 15.7604C15.2084 15.7672 14.8203 15.7111 14.4503 15.59C14.036 15.4542 13.5273 15.3541 13.5273 15.3541L16.8273 15.084C16.849 15.233 16.8668 15.4135 16.8728 15.6215Z" fill="#C86AD8"/>
<path d="M8.96113 22.1388C8.89902 22.1308 8.83787 22.1079 8.78298 22.0692C7.92091 21.4594 7.89491 20.4076 7.91754 20.0208C7.92067 19.9664 7.85832 19.9336 7.81523 19.9671C6.99649 20.6077 6.21555 20.6253 5.76345 20.5566C5.59374 20.5309 5.52152 20.3296 5.63322 20.1994C6.32581 19.392 6.191 18.1325 6.13274 17.7634C6.1272 17.7275 6.08026 17.7186 6.06148 17.7494C5.84386 18.1045 5.53524 18.3833 5.31569 18.5542C5.15873 18.6763 4.92955 18.617 4.84794 18.436C4.56412 17.8065 4.74635 16.9295 4.80822 16.6784C4.814 16.6548 4.78728 16.637 4.76754 16.651C4.16305 17.0747 3.68327 17.1433 3.34672 17.0987C3.08841 17.0646 2.99068 16.7412 3.18302 16.5655C3.38452 16.3814 3.61996 16.1084 3.86984 15.6866C4.2254 15.086 4.45867 14.4218 4.57447 13.7338C4.91631 11.7036 5.97843 9.50646 5.97843 9.50646C6.1597 9.27993 6.37877 9.15162 6.59808 9.08301C5.60698 11.6261 6.88166 14.3664 7.0757 14.2008C6.37396 15.0015 6.14454 15.9868 6.07352 16.4338C6.05715 16.5371 6.16957 16.6113 6.2584 16.5561C6.8535 16.1868 7.34026 15.5583 7.34026 15.5583C7.52779 16.8864 7.32221 18.3961 7.22591 18.9798C7.20641 19.0971 7.31932 19.1938 7.4315 19.1551C8.34894 18.8402 8.8918 18.1411 8.90985 18.1178C8.32848 19.1587 8.62819 21.0018 8.73411 21.6014C8.73411 21.6014 8.78924 21.9659 8.96113 22.1388Z" fill="#C86AD8"/>
<path d="M7.72178 14.7772C7.72804 14.8369 7.70012 14.8949 7.65029 14.925C7.37753 15.0909 6.47358 15.5617 5.97116 14.8665C5.39485 14.0692 5.4897 12.9989 6.30097 12.3532C6.35152 12.313 6.4235 12.3183 6.46997 12.3645C6.50247 12.3968 6.54363 12.4387 6.59081 12.4895C6.90497 12.8287 7.49429 13.567 7.68014 14.5032C7.69795 14.593 7.71191 14.6843 7.72178 14.7772Z" fill="#F2D3B8"/>
<path d="M7.68033 14.503C7.68082 14.5471 7.65963 14.5875 7.62472 14.6099C7.41288 14.7435 6.71066 15.1222 6.31513 14.5533C5.86135 13.9004 5.92972 13.0285 6.55899 12.5066C6.56886 12.4984 6.5797 12.4926 6.59125 12.4893C6.90517 12.8287 7.49449 13.567 7.68033 14.503Z" fill="#EAB783"/>
<path d="M16.3303 11.6013C16.752 13.0151 15.9403 14.2005 15.9403 14.2005C15.8317 14.0667 15.7207 13.9509 15.6083 13.8507C14.3656 12.745 12.9634 13.5854 12.9634 13.5854C11.8666 13.0144 10.8001 13.7835 10.1494 14.4485C9.75244 14.8543 9.51002 15.2212 9.51002 15.2212C8.2399 14.9689 8.04924 13.5045 8.02397 12.9287C8.01747 12.7828 7.95174 12.6458 7.84317 12.5481C6.37349 11.2226 7.12843 9.14364 7.12843 9.14364C7.66334 8.86246 9.11449 8.69587 10.4019 8.66819C11.2163 8.65061 11.9653 8.68889 12.376 8.7888C13.167 8.98138 14.9063 8.82009 15.7378 8.72596C16.0204 8.69395 16.1983 8.66963 16.1983 8.66963C16.8079 9.68023 16.4841 10.8685 16.3375 11.2871C16.3019 11.3885 16.2994 11.4985 16.3303 11.6013Z" fill="#F2D3B8"/>
<path d="M11.6381 9.06951L11.4763 8.68073L10.3767 8.69397L10.4019 8.66797C9.11449 8.69565 7.66334 8.86224 7.12843 9.14342C7.12843 9.14342 6.37349 11.2224 7.84317 12.5479C7.95174 12.6456 8.01747 12.7826 8.02397 12.9285C8.04924 13.5043 8.2399 14.9687 9.51002 15.221C9.51002 15.221 9.75244 14.8541 10.1494 14.4482L9.81431 14.3589C8.63808 14.0123 8.73726 12.9179 8.82826 12.481C8.85281 12.3635 8.8285 12.2407 8.76061 12.1418C7.87351 10.8485 8.67972 9.90895 9.37159 9.40173C9.37135 9.40173 10.0353 8.927 11.6381 9.06951Z" fill="#EAB783"/>
<path d="M10.6587 14.1566C11.2 14.1566 11.6388 13.5901 11.6388 12.8913C11.6388 12.1925 11.2 11.626 10.6587 11.626C10.1175 11.626 9.67871 12.1925 9.67871 12.8913C9.67871 13.5901 10.1175 14.1566 10.6587 14.1566Z" fill="#1C081E"/>
<path d="M10.9214 12.6505C11.1197 12.6505 11.2804 12.4898 11.2804 12.2916C11.2804 12.0933 11.1197 11.9326 10.9214 11.9326C10.7232 11.9326 10.5625 12.0933 10.5625 12.2916C10.5625 12.4898 10.7232 12.6505 10.9214 12.6505Z" fill="white"/>
<path d="M14.6904 13.5364C15.1968 13.5364 15.6074 13.0073 15.6074 12.3546C15.6074 11.7019 15.1968 11.1729 14.6904 11.1729C14.184 11.1729 13.7734 11.7019 13.7734 12.3546C13.7734 13.0073 14.184 13.5364 14.6904 13.5364Z" fill="#1C081E"/>
<path d="M14.8912 12.1729C15.0894 12.1729 15.2501 12.0122 15.2501 11.814C15.2501 11.6158 15.0894 11.4551 14.8912 11.4551C14.6929 11.4551 14.5322 11.6158 14.5322 11.814C14.5322 12.0122 14.6929 12.1729 14.8912 12.1729Z" fill="white"/>
<path d="M11.325 10.3698C11.3359 10.3503 11.3352 10.3265 11.326 10.306C11.267 10.1755 10.962 9.56093 10.4105 9.49015C9.9738 9.41745 8.98823 9.86714 8.69694 10.4295C8.50484 10.8007 8.5578 11.3481 8.63122 11.736C8.65722 11.8739 8.84259 11.9028 8.90927 11.7793C9.18973 11.2581 9.80384 10.3931 10.781 10.4163C10.781 10.4163 11.0455 10.4384 10.9883 10.2444C10.988 10.2444 11.2625 10.4815 11.325 10.3698Z" fill="#C86AD8"/>
<path d="M13.3751 10.1842C13.3611 10.1697 13.356 10.1488 13.3594 10.1291C13.3801 10.0022 13.5014 9.3977 13.9634 9.20752C14.3252 9.04238 15.2853 9.20271 15.6693 9.62255C15.9227 9.89987 16.0044 10.3869 16.0313 10.7408C16.0409 10.8667 15.8869 10.935 15.8002 10.8431C15.4353 10.4564 14.7005 9.84932 13.8582 10.0973C13.8582 10.0973 13.6338 10.1782 13.6382 9.99641C13.6379 9.99641 13.4555 10.2663 13.3751 10.1842Z" fill="#C86AD8"/>
<path d="M11.2734 16.1355C11.2734 16.1355 11.6085 17.2645 13.2845 17.1059C14.9605 16.947 14.696 15.4123 14.696 15.4123C14.696 15.4123 13.0464 14.2301 11.2734 16.1355Z" fill="#1C081E"/>
<path d="M13.9469 16.5855C13.9861 16.5562 13.9924 16.4998 13.9626 16.4608C13.7223 16.1479 13.2579 15.9355 12.7242 15.9355C12.3166 15.9355 11.9495 16.0593 11.6917 16.2569C11.6604 16.2808 11.6537 16.3258 11.677 16.3576C11.9137 16.6787 12.3843 16.8978 12.9264 16.8978C13.3277 16.8978 13.6898 16.7779 13.9469 16.5855Z" fill="#EAC5ED"/>
<path d="M17.783 14.5564C17.1775 15.2858 16.2526 15.5092 15.5682 15.5665C15.3499 15.5848 15.1559 15.5863 15.0047 15.5817C14.8347 15.5767 14.6667 15.5492 14.5035 15.5015C14.2991 15.4418 13.9108 15.3557 13.3619 15.3496H13.3609C13.2928 15.3492 13.222 15.3496 13.1489 15.3516C12.9471 15.3602 12.7367 15.4233 12.5449 15.5044C12.314 15.6019 12.1099 15.7257 11.9787 15.8128C11.9666 15.8208 11.9553 15.8285 11.9445 15.8357C11.8342 15.9096 11.7194 15.9772 11.6002 16.0357C11.5853 16.043 11.5704 16.0502 11.5554 16.0569C11.5494 16.06 11.5434 16.0629 11.5371 16.0656C11.5203 16.0733 11.5034 16.081 11.4866 16.0887C11.4774 16.0928 11.4681 16.0969 11.4589 16.101C11.4423 16.1082 11.4259 16.1152 11.4093 16.1224C11.4035 16.1248 11.3978 16.1272 11.392 16.1296C11.3727 16.1378 11.3532 16.1457 11.334 16.1537C11.2858 16.1734 11.2377 16.192 11.1895 16.2098C11.1433 16.2266 11.0971 16.243 11.0511 16.2584C11.0042 16.2741 10.9572 16.289 10.9103 16.3032C10.8893 16.3094 10.8681 16.3157 10.8472 16.3217C10.8405 16.3239 10.834 16.3258 10.8275 16.3275C10.8106 16.3323 10.7935 16.3369 10.7767 16.3415C10.7692 16.3436 10.762 16.3458 10.7545 16.3475C10.7367 16.3523 10.7191 16.3569 10.7013 16.3614C10.6999 16.3619 10.6984 16.3622 10.697 16.3624C10.6748 16.3682 10.6529 16.3735 10.6308 16.3788C10.515 16.4065 10.4002 16.4298 10.2865 16.4488C10.2639 16.4527 10.2413 16.4563 10.2186 16.4599C10.1734 16.4669 10.1286 16.4731 10.0838 16.4789C10.0614 16.4818 10.0391 16.4845 10.0169 16.4871C9.97237 16.4922 9.92832 16.4967 9.88426 16.5008C9.86236 16.5028 9.84045 16.5047 9.81854 16.5064C9.77497 16.5097 9.73164 16.5126 9.68855 16.515C9.6026 16.5198 9.51787 16.5225 9.43457 16.5235C9.37607 16.5242 9.31806 16.5239 9.26076 16.5227H9.25859C9.11175 16.5198 8.97019 16.5114 8.83514 16.4994C8.81661 16.4979 8.79831 16.4963 8.78001 16.4943C8.72922 16.4893 8.67963 16.4837 8.631 16.4777C8.5985 16.4736 8.56648 16.4695 8.53495 16.4652C8.5193 16.463 8.50365 16.4609 8.488 16.4585C8.44154 16.4517 8.39604 16.4445 8.35175 16.437C8.32214 16.432 8.29325 16.4269 8.2646 16.4216C8.22199 16.4139 8.18035 16.4057 8.14014 16.3976C8.11318 16.392 8.08694 16.3865 8.06118 16.3809C7.99667 16.3667 7.936 16.3525 7.87919 16.3383C7.71116 16.2962 7.69141 16.0673 7.84861 15.9943C9.30313 15.3205 10.0119 13.5025 11.204 12.9303C12.2228 12.3879 12.9902 13.0627 12.9902 13.0627C13.3542 12.7259 13.7163 12.5915 14.0653 12.5899C14.2623 12.5889 14.4546 12.6301 14.6407 12.7008L14.6412 12.7011C15.0487 12.8559 15.4255 13.1522 15.7488 13.457C15.8533 13.5554 15.9638 13.6474 16.0834 13.7268C16.6224 14.0843 17.16 14.2025 17.5288 14.2372C17.5702 14.2411 17.6094 14.2439 17.6463 14.2459C17.802 14.2545 17.8824 14.4365 17.783 14.5564Z" fill="#DE8BEA"/>
<path d="M12.9902 13.0631C12.9902 13.0631 11.5422 12.5522 10.6587 14.1572C9.77497 15.7622 9.07371 16.04 9.07371 16.04C9.07371 16.04 10.2964 16.6004 11.9787 15.8132C11.8828 15.877 11.8258 15.9211 11.8258 15.9211C10.2865 16.7605 8.68805 16.5412 7.87919 16.3387C7.71116 16.2966 7.69141 16.0677 7.84861 15.9947C9.30313 15.3209 10.0119 13.5029 11.204 12.9307C12.2228 12.3883 12.9902 13.0631 12.9902 13.0631Z" fill="#C86AD8"/>
<path d="M14.0656 12.5901C14.0656 12.5901 13.3143 12.8508 13.268 13.4199C13.268 13.4199 13.2151 13.1948 12.9902 13.0626C13.3542 12.7259 13.7163 12.5915 14.0654 12.5898L14.0656 12.5901Z" fill="#C86AD8"/>
<path d="M20.0479 8.01251C20.0277 7.98194 19.755 7.6555 17.6873 8.47111C17.0977 8.72797 16.3522 8.89047 15.5474 8.98724C15.5474 8.98724 15.5462 8.98724 15.544 8.98748C15.5433 8.98748 15.5424 8.98773 15.5416 8.98773C15.5407 8.98773 15.5397 8.98797 15.5387 8.98797C15.3844 9.0065 15.2282 9.02263 15.0703 9.03659C15.0099 9.04189 14.9489 9.04695 14.888 9.05152C14.8192 9.05682 14.7503 9.06187 14.6813 9.0662C14.6516 9.06813 14.6218 9.07006 14.5919 9.07174C14.4658 9.07969 14.3392 9.08595 14.2125 9.09124C14.0289 9.09894 13.8449 9.10424 13.6617 9.10737C13.0279 9.11844 12.4022 9.10472 11.8261 9.07872C11.3514 9.05706 10.9104 9.02745 10.5269 8.99639C8.72934 8.85099 6.91902 9.10569 5.24182 9.76819C3.63227 10.404 1.83663 11.4719 0.540039 13.2603C0.565316 13.2133 2.18714 10.2082 4.72737 9.02672C5.60942 8.01323 6.15517 6.87673 6.16215 5.54354C6.16215 5.53656 6.16215 5.52934 6.16166 5.5226C6.16142 5.51923 6.16118 5.51586 6.16094 5.51249C6.1607 5.50887 6.16022 5.50502 6.15974 5.50141C6.1595 5.49804 6.15902 5.49491 6.15854 5.49154C6.15829 5.48962 6.15805 5.48769 6.15757 5.486C6.15637 5.47806 6.15492 5.47012 6.15276 5.46241C6.15228 5.45904 6.15131 5.45591 6.15059 5.45278C6.14794 5.44315 6.14505 5.43377 6.14144 5.42462C6.13952 5.41956 6.13759 5.41427 6.13543 5.40921C6.13326 5.40416 6.13109 5.3991 6.12868 5.39429C6.1258 5.38803 6.12267 5.38201 6.1193 5.37623C6.11472 5.36829 6.11015 5.36034 6.10509 5.35288C6.09883 5.34349 6.09209 5.33458 6.08487 5.32592C6.08198 5.32231 6.07885 5.31869 6.07548 5.31508C6.06417 5.30232 6.05165 5.29053 6.03841 5.2797C6.03456 5.27657 6.03071 5.27344 6.02661 5.27055C6.01771 5.26357 6.00808 5.25731 5.99845 5.25153C5.99074 5.24672 5.9828 5.24238 5.97462 5.23853C5.9438 5.22312 5.91058 5.21253 5.87543 5.20748C5.87206 5.20699 5.86869 5.20651 5.86508 5.20627C5.85858 5.20531 5.85208 5.20483 5.84534 5.20459C5.8398 5.20435 5.83427 5.2041 5.82849 5.2041C5.80803 5.2041 5.78732 5.20603 5.76638 5.20988C5.39757 5.27921 4.8085 5.4511 4.20474 5.87792C3.71003 6.22747 3.27791 6.25804 2.96881 6.20075C2.95966 6.19906 2.95075 6.19713 2.94184 6.19497C2.93053 6.19232 2.91946 6.18943 2.90862 6.18582C2.90333 6.18438 2.89827 6.18269 2.89322 6.18076C2.89057 6.18004 2.88792 6.17908 2.88551 6.17812C2.8807 6.17667 2.87637 6.17475 2.87179 6.17306C2.86746 6.17137 2.86337 6.16969 2.85903 6.16801C2.84411 6.16151 2.82942 6.15452 2.81546 6.14706C2.80294 6.14032 2.7909 6.1331 2.77911 6.12539C2.76539 6.11649 2.75239 6.1071 2.73987 6.09699C2.73409 6.09266 2.7288 6.08808 2.7235 6.08351C2.71917 6.0799 2.71483 6.07604 2.7105 6.07195C2.70689 6.06882 2.70352 6.06545 2.69991 6.06184C2.67872 6.04138 2.6597 6.01899 2.64261 5.99516C2.63828 5.98938 2.63419 5.9836 2.63033 5.97758C2.62696 5.97229 2.62359 5.96723 2.62046 5.96194C2.61709 5.95664 2.61396 5.95134 2.61108 5.94581C2.6053 5.9357 2.59976 5.92534 2.59495 5.91475C2.59158 5.90777 2.58845 5.90079 2.58532 5.89357C2.58339 5.88851 2.58122 5.8837 2.5793 5.8784C2.574 5.86492 2.56943 5.8512 2.56534 5.83724C2.56413 5.83314 2.56317 5.82929 2.56197 5.8252C2.56148 5.82327 2.561 5.82135 2.56052 5.81942C2.55932 5.81461 2.55811 5.80979 2.55715 5.80498C2.5545 5.79366 2.55234 5.78187 2.55065 5.77007C2.54969 5.76477 2.54897 5.75972 2.54848 5.75442C2.54824 5.75177 2.54776 5.74889 2.54752 5.746C2.54704 5.74191 2.5468 5.73781 2.54632 5.73348C2.54608 5.72818 2.5456 5.7224 2.54536 5.71687C2.54511 5.70941 2.54487 5.7017 2.54487 5.69424C2.54487 5.63863 2.55402 5.58182 2.57328 5.52549C3.14839 3.84227 6.01434 1.1682 9.15182 0.504491C9.47008 0.437085 9.79073 0.403141 10.1087 0.401456C11.4089 0.393511 12.6702 0.92096 13.57 1.89858C14.4253 2.82782 15.2881 4.14463 15.8835 5.67931C15.9545 5.86203 15.9783 6.27128 16.0115 6.36733C16.0977 6.61866 16.0556 6.54644 16.2569 6.71977C16.662 7.06859 17.4581 7.56137 18.7725 7.63383C18.8175 7.63624 18.8623 7.63696 18.9073 7.63696C18.9608 7.63696 19.0484 7.63889 19.1526 7.64684H19.1546C19.4692 7.67115 19.9314 7.75131 20.0479 8.01251Z" fill="#7C3382"/>
<path d="M15.5387 8.98788C15.3844 9.00642 15.2282 9.02254 15.0703 9.03651C15.0099 9.0418 14.9489 9.04686 14.888 9.05143C14.8192 9.05673 14.7503 9.06178 14.6813 9.06612C14.6516 9.06804 14.6218 9.06997 14.5919 9.07166C14.4658 9.0796 14.3392 9.08586 14.2125 9.09115C14.0289 9.09886 13.8449 9.10415 13.6617 9.10728C13.0279 9.11836 12.4022 9.10464 11.8261 9.07864C11.3514 9.05697 10.9104 9.02736 10.5269 8.99631C8.72934 8.8509 6.91902 9.1056 5.24182 9.7681C3.63227 10.4039 1.83663 11.4718 0.540039 13.2602C0.565316 13.2132 2.18714 10.2082 4.72737 9.02664C5.60942 8.01315 6.15517 6.87664 6.16215 5.54345C6.16215 5.53647 6.16215 5.52925 6.16167 5.52251C6.16142 5.51914 6.16118 5.51577 6.16094 5.5124C6.1607 5.50855 6.16022 5.50494 6.15974 5.50132C6.1595 5.49795 6.15902 5.49482 6.15854 5.49145C6.1583 5.48953 6.15805 5.4876 6.15757 5.48592C6.15637 5.47797 6.15493 5.47003 6.15276 5.46233C6.15228 5.45896 6.15131 5.45583 6.15059 5.4527C6.14794 5.44307 6.14506 5.43368 6.14144 5.42453C6.13976 5.41923 6.13759 5.41418 6.13543 5.40912C6.1335 5.40407 6.13109 5.39901 6.12868 5.3942C6.1258 5.38794 6.12267 5.38192 6.1193 5.37614C6.11496 5.3682 6.11015 5.36049 6.10509 5.35279C6.09883 5.3434 6.09209 5.33449 6.08487 5.32583C6.08174 5.32222 6.07885 5.31861 6.07548 5.31499C6.06417 5.30224 6.05165 5.29044 6.03841 5.27961C6.03456 5.27648 6.03071 5.27335 6.02661 5.27046C6.01771 5.26348 6.00808 5.25722 5.99845 5.25144C5.99075 5.24663 5.9828 5.24229 5.97462 5.23844C5.9438 5.22303 5.91058 5.21244 5.87543 5.20739C5.87206 5.20691 5.86869 5.20642 5.86508 5.20618C5.85858 5.20522 5.85208 5.20474 5.84534 5.2045C5.8398 5.20426 5.83403 5.20402 5.82849 5.20402C5.80803 5.20402 5.78732 5.20594 5.76638 5.20979C5.39758 5.27913 4.8085 5.45101 4.20474 5.87783C3.71003 6.22738 3.27791 6.25795 2.96881 6.20066C2.95966 6.19897 2.95075 6.19705 2.94184 6.19488C2.93053 6.19223 2.91946 6.18934 2.90862 6.18573C2.90333 6.18429 2.89827 6.1826 2.89322 6.18068C2.89057 6.17995 2.88792 6.17899 2.88551 6.17803C2.8807 6.17658 2.87637 6.17466 2.87179 6.17297C2.86746 6.17129 2.86337 6.1696 2.85903 6.16792C2.84411 6.16142 2.82942 6.15444 2.81546 6.14697C2.80294 6.14023 2.7909 6.13301 2.77911 6.12531C2.76539 6.1164 2.75239 6.10701 2.73987 6.0969C2.73409 6.09257 2.7288 6.08799 2.7235 6.08342C2.71917 6.07981 2.71483 6.07596 2.7105 6.07186C2.70689 6.06873 2.70352 6.06536 2.69991 6.06175C2.67872 6.04129 2.6597 6.0189 2.64261 5.99507C2.63828 5.98929 2.63419 5.98351 2.63034 5.9775C2.62696 5.9722 2.62359 5.96715 2.62047 5.96185C2.61709 5.95655 2.61396 5.95126 2.61108 5.94572C2.6053 5.93561 2.59976 5.92526 2.59495 5.91466C2.59158 5.90768 2.58845 5.9007 2.58532 5.89348C2.58339 5.88842 2.58122 5.88361 2.5793 5.87831C2.574 5.86483 2.56943 5.85111 2.56534 5.83715C2.56413 5.83306 2.56317 5.8292 2.56197 5.82511C2.56148 5.82318 2.561 5.82126 2.56052 5.81933C2.55932 5.81452 2.55811 5.8097 2.55715 5.80489C2.5545 5.79358 2.55234 5.78178 2.55065 5.76998C2.54969 5.76469 2.54897 5.75963 2.54849 5.75433C2.54824 5.75169 2.54776 5.7488 2.54752 5.74591C2.54704 5.74182 2.5468 5.73772 2.54632 5.73339C2.54608 5.7281 2.5456 5.72232 2.54536 5.71678C2.54512 5.70932 2.54487 5.70161 2.54487 5.69415C2.54487 5.63854 2.55402 5.58173 2.57328 5.5254C3.14839 3.84218 6.01434 1.16811 9.15183 0.504402C9.47008 0.436997 9.79074 0.403052 10.1087 0.401367C9.6812 0.404497 9.446 0.530883 9.31769 0.681101C9.14822 0.879948 9.16555 1.17774 9.35019 1.36262C11.1398 3.15224 11.4708 4.10699 11.3329 6.64505C11.2448 8.27049 12.8883 8.78061 14.1487 8.93371C14.8666 9.02086 15.4603 8.99221 15.5387 8.98788Z" fill="#572866"/>
<path d="M6.15014 5.4531C6.10585 5.28916 5.94239 5.17698 5.76593 5.2102C5.39712 5.27953 4.80805 5.45142 4.20428 5.87824C3.70958 6.22779 3.27746 6.25836 2.96836 6.20106C2.82247 6.1741 2.70403 6.09033 2.62988 5.9779C2.63999 5.91724 2.65733 5.85513 2.68284 5.79206C2.88313 5.29759 3.50688 4.86595 3.89277 4.63701C4.16288 4.47668 4.46572 4.37702 4.7794 4.35728C5.86631 4.28915 6.10199 5.16446 6.15014 5.4531Z" fill="#401B51"/>
<path d="M16.6867 7.03108C16.6867 7.03108 14.6887 6.8007 12.9149 6.78289C12.5887 6.77952 12.27 6.78337 11.9729 6.79709C11.5348 6.81755 11.1431 6.85944 10.8422 6.93166C9.22784 7.31972 4.72707 9.02653 4.72707 9.02653C4.72707 9.02653 4.64113 8.74005 4.67652 8.60765C4.71166 8.47525 4.88812 8.38714 4.88812 8.38714C4.88812 8.38714 4.95866 8.21959 5.13511 8.14015C5.31157 8.0607 8.92812 6.03637 10.529 5.62616C11.5083 5.37531 13.251 5.54479 14.4571 5.71402C14.4576 5.71402 14.4583 5.71427 14.4588 5.71427C15.2233 5.82187 15.772 5.92924 15.772 5.92924C15.772 5.92924 15.862 5.942 15.9689 5.98726L15.9698 5.98774C16.0182 6.0082 16.07 6.03541 16.1184 6.07103C16.2084 6.13675 16.2869 6.23184 16.311 6.36714C16.311 6.36714 16.732 6.50436 16.6867 7.03108Z" fill="#DE8BEA"/>
<path d="M11.8855 6.02C12.5249 6.0862 12.9149 6.27903 12.9149 6.27903C12.6436 6.30382 12.4026 6.34427 12.1963 6.38928C12.0435 6.42275 12.0543 6.64494 12.2098 6.66324C12.5935 6.70874 12.9149 6.78289 12.9149 6.78289C12.5887 6.77952 12.27 6.78337 11.9729 6.79709C11.5348 6.81755 11.1431 6.85944 10.8422 6.93166C9.22784 7.31972 4.72707 9.02653 4.72707 9.02653C4.72707 9.02653 4.64113 8.74005 4.67652 8.60765C4.71166 8.47525 4.88812 8.38714 4.88812 8.38714C4.88812 8.38714 4.95866 8.21959 5.13511 8.14015C5.31157 8.0607 8.92812 6.03637 10.529 5.62616C11.5083 5.37531 13.251 5.54479 14.4571 5.71402C13.3853 5.59414 12.4953 5.67599 11.8764 5.78673C11.7418 5.8108 11.7498 6.00604 11.8855 6.02Z" fill="#C86AD8"/>
<path d="M25.2728 4.05264H25.1093V3.88918C25.1093 3.73727 24.9863 3.61426 24.8344 3.61426C24.6825 3.61426 24.5595 3.73727 24.5595 3.88918V4.05264H24.396C24.2441 4.05264 24.1211 4.17565 24.1211 4.32755C24.1211 4.47946 24.2441 4.60247 24.396 4.60247H24.5595V4.76593C24.5595 4.91783 24.6825 5.04085 24.8344 5.04085C24.9863 5.04085 25.1093 4.91783 25.1093 4.76593V4.60247H25.2728C25.4247 4.60247 25.5477 4.47946 25.5477 4.32755C25.5477 4.17565 25.4247 4.05264 25.2728 4.05264Z" fill="#DE8BEA"/>
<path d="M20.7112 12.1356H20.5478V11.9722C20.5478 11.8203 20.4248 11.6973 20.2729 11.6973C20.121 11.6973 19.9979 11.8203 19.9979 11.9722V12.1356H19.8345C19.6826 12.1356 19.5596 12.2587 19.5596 12.4106C19.5596 12.5625 19.6826 12.6855 19.8345 12.6855H19.9979V12.8489C19.9979 13.0008 20.121 13.1239 20.2729 13.1239C20.4248 13.1239 20.5478 13.0008 20.5478 12.8489V12.6855H20.7112C20.8631 12.6855 20.9862 12.5625 20.9862 12.4106C20.9862 12.2587 20.8631 12.1356 20.7112 12.1356Z" fill="#DE8BEA"/>
<path d="M17.6291 5.45566C17.5188 5.27775 17.3698 5.1545 17.1943 5.06856C17.3474 4.95035 17.4731 4.80158 17.5814 4.63379C17.6992 4.79388 17.8436 4.92339 18.0162 5.02089C17.8518 5.13813 17.723 5.28329 17.6291 5.45566Z" fill="white"/>
<path d="M21.4963 9.29257C21.386 9.11467 21.237 8.99141 21.0615 8.90547C21.2146 8.78727 21.3403 8.6385 21.4486 8.4707C21.5663 8.63079 21.7108 8.76031 21.8834 8.8578C21.7192 8.97504 21.5904 9.12021 21.4963 9.29257Z" fill="white"/>
<path d="M23.8216 3.22741C23.8588 3.04611 23.742 2.86897 23.5607 2.83176C23.3794 2.79454 23.2023 2.91134 23.165 3.09263C23.1278 3.27393 23.2446 3.45107 23.4259 3.48829C23.6072 3.52551 23.7844 3.40871 23.8216 3.22741Z" fill="#E2B1E5"/>
<path d="M20.8274 4.68508C20.8561 4.50224 20.7312 4.33075 20.5483 4.30202C20.3655 4.2733 20.194 4.39823 20.1653 4.58106C20.1366 4.76389 20.2615 4.93539 20.4443 4.96412C20.6272 4.99284 20.7987 4.86791 20.8274 4.68508Z" fill="#E2B1E5"/>
<path d="M23.8243 11.6846C23.8561 11.5023 23.7341 11.3287 23.5518 11.2968C23.3695 11.265 23.1959 11.387 23.1641 11.5693C23.1323 11.7516 23.2542 11.9252 23.4366 11.9571C23.6189 11.9889 23.7925 11.8669 23.8243 11.6846Z" fill="#E2B1E5"/>
<path d="M27.4652 11.626L27.0613 12.3412L21.1188 22.8642L18.9577 26.6909L17.6385 25.9167L17.4013 25.7231L16.1924 17.0813L16.3469 17.0295L23.6017 14.6039L25.3682 12.1797L25.7717 11.626H27.4652Z" fill="#EAC5ED"/>
<path d="M17.6385 25.9162L17.4096 25.7819L17.4014 25.7227L17.6385 25.9162Z" fill="#E0B0E2"/>
<path d="M21.1188 22.864L18.9577 26.6907L18.4774 26.4088L18.1638 26.2246L17.9425 26.0949L17.6385 25.9165L17.4095 25.7822L16.1924 17.0811L17.995 17.7496L21.1188 22.864Z" fill="#CC8DCC"/>
<path d="M16.5557 17.2165L20.3744 15.9262C20.3997 15.9177 20.4264 15.9144 20.4532 15.9168C20.503 15.9211 20.5119 15.9902 20.4647 16.0073L16.8207 17.315L16.5557 17.2165Z" fill="#CC8DCC"/>
<path d="M17.1348 17.4306L18.7525 16.8288C18.7917 16.8141 18.8331 16.8066 18.875 16.8066C18.9374 16.8066 18.954 16.8928 18.8962 16.9159L17.383 17.5223L17.1348 17.4306Z" fill="#CC8DCC"/>
<path d="M18.4777 26.409L18.164 26.2249L17.9529 24.0072C17.9524 24.0029 17.9521 23.9986 17.9521 23.9945C17.9521 23.9222 18.0109 23.8623 18.0848 23.8623C18.1524 23.8623 18.2093 23.9133 18.2165 23.9807L18.4777 26.409Z" fill="#C86AD8"/>
<path d="M17.9429 26.0951L17.6388 25.9167L17.3066 23.3515C17.3059 23.3459 17.3057 23.3404 17.3057 23.3351C17.3057 23.2694 17.3569 23.2135 17.4243 23.2102C17.4893 23.2065 17.5464 23.2535 17.5553 23.318L17.9429 26.0951Z" fill="#C86AD8"/>
<path opacity="0.63" d="M26.0454 11.626H25.7717L25.3682 12.1797L23.6017 14.6039L16.3469 17.0295L16.1924 17.0813L17.4095 25.7824L17.6385 25.9167L16.5561 17.2161L23.6568 14.8747C23.7883 14.8314 23.9017 14.7454 23.9789 14.6306L25.6205 12.1895L26.4166 12.2203L25.6318 13.2803C25.6039 13.3181 25.6309 13.3715 25.6778 13.3715C25.6954 13.3715 25.712 13.3636 25.7228 13.3496L26.6053 12.2278L26.529 12.2249L26.938 12.2408L27.0613 12.3414L27.4652 11.6262H26.0454V11.626Z" fill="white"/>
<path opacity="0.63" d="M25.8108 12.7125L26.141 12.2101L25.9612 12.2031L25.6882 12.6333C25.6574 12.6819 25.6923 12.7455 25.7499 12.7455C25.7744 12.7455 25.7973 12.733 25.8108 12.7125Z" fill="white"/>
<path d="M15.4443 22.5349C15.4443 22.5349 15.9723 22.4525 16.3883 22.2674C16.5527 22.1942 16.6759 22.051 16.7224 21.8769C16.7648 21.719 16.8045 21.5134 16.7879 21.3427C16.777 21.233 16.8271 21.1227 16.9244 21.0702C17.0854 20.9833 17.3505 21.0698 17.6179 22.1494C17.6177 22.1494 16.5847 22.7525 15.4443 22.5349Z" fill="#F2D3B8"/>
<path d="M24.9174 21.1505C24.8693 20.3561 24.773 19.6098 24.6285 18.7913C24.6045 18.6469 24.5804 18.5025 24.5082 18.358C24.2193 17.5877 24.4841 16.8173 24.4841 16.047C24.4735 15.8996 24.4632 15.7343 24.4326 15.5703C24.0077 15.8272 23.4492 15.9295 23.1901 15.7591C23.1863 15.7566 23.1824 15.754 23.1786 15.7513L17.9941 17.7499L18.947 26.6812L24.2414 23.8682C24.2443 23.8691 24.2472 23.8701 24.2501 23.8708C24.4627 23.9409 24.7032 23.919 24.9388 23.8369C24.9239 22.9414 24.9863 22.0461 24.9174 21.1505Z" fill="#572866"/>
<path d="M28.0442 19.8486L28.3638 19.4302L27.4553 11.6162L26.938 12.2407L24.9546 14.6341C24.9731 14.6954 24.9815 14.7559 24.9808 14.8151C24.9782 15.1177 24.7408 15.3844 24.4334 15.5703C24.464 15.7342 24.4745 15.8998 24.4849 16.0469C24.4849 16.8173 24.2201 17.5876 24.509 18.358C24.5812 18.5024 24.6053 18.6469 24.6293 18.7913C24.7738 19.6098 24.8701 20.3561 24.9182 21.1505C24.9871 22.046 24.9247 22.9413 24.9396 23.8368C25.5968 23.6074 26.216 22.9076 26.0793 22.4206L26.0863 22.4112L28.0442 19.8486Z" fill="#572866"/>
<path d="M28.3634 19.3501L28.0437 19.848L26.9375 12.24L27.4548 11.5361L28.3634 19.3501Z" fill="#7C3382"/>
<path d="M24.2501 23.8702L24.0607 22.4226L23.8943 21.152L23.4851 18.0256L23.3204 16.7675C23.3202 16.7675 23.3202 16.7673 23.3202 16.7673L23.1885 15.7605L23.1902 15.7584C23.6365 16.0523 24.9738 15.535 24.98 14.8145L25.2321 16.547L25.3678 17.4789L25.8455 20.7616L25.956 21.5206L26.1346 22.7257C26.1423 22.7779 26.1425 22.8314 26.1331 22.8834C25.9728 23.7669 25.0311 24.128 24.2501 23.8702Z" fill="#572866"/>
<path d="M26.1446 22.7189L25.9659 21.5138L25.8554 20.7547L25.3778 17.4721L25.242 16.5402L24.99 14.8076C24.9878 15.0522 24.8323 15.2732 24.6104 15.4472L24.6636 15.7826L24.8463 16.9357L25.4895 20.9981L25.6383 21.9374L25.8783 23.4286C25.8795 23.436 25.8802 23.4437 25.8812 23.4514C26.0093 23.2952 26.1022 23.1031 26.1433 22.8763C26.1525 22.8245 26.1523 22.7711 26.1446 22.7189Z" fill="#7C3382"/>
<path d="M27.77 14.2959L27.8333 14.9009C27.262 15.0407 26.9662 15.6488 26.9662 15.6488C26.7781 16.0232 26.7772 16.2892 26.9329 16.464C26.982 16.5193 27.0612 16.5367 27.1301 16.5099L27.1417 16.5056C26.9553 17.022 26.9455 17.3653 27.1183 17.5299C27.179 17.5875 27.2714 17.5973 27.3463 17.5595C27.3737 17.5458 27.3817 17.5403 27.3817 17.5403C27.2346 17.8901 27.2442 18.1395 27.3896 18.3024C27.4366 18.3549 27.5018 18.3845 27.5699 18.3889C27.6077 18.3913 27.6465 18.3865 27.6835 18.3735C28.3037 18.1587 28.7182 17.8366 28.9375 17.631C29.069 17.5075 29.1207 17.319 29.0651 17.1479C28.997 16.938 28.8788 16.8046 28.6889 16.7817C28.6901 16.7808 28.691 16.78 28.692 16.7788C28.8191 16.6635 28.8807 16.4914 28.8571 16.3212C28.8215 16.0639 28.6691 15.8684 28.4729 15.7569C28.4739 15.7555 28.4751 15.7543 28.4763 15.7531C28.582 15.6248 28.6104 15.4483 28.5495 15.2935C28.4931 15.151 28.4265 15.0212 28.3497 14.9021C28.1927 14.6582 27.9963 14.4601 27.77 14.2959Z" fill="#F2D3B8"/>
<path d="M27.77 14.2959L27.8333 14.9009C27.262 15.0407 26.9662 15.6488 26.9662 15.6488C26.7781 16.0232 26.7772 16.2892 26.9329 16.464C26.982 16.5193 27.0612 16.5367 27.1301 16.5099L27.1417 16.5056C26.9553 17.022 26.9455 17.3653 27.1183 17.5299C27.179 17.5875 27.2714 17.5973 27.3463 17.5595C27.3737 17.5458 27.3817 17.5403 27.3817 17.5403C27.2346 17.8901 27.2442 18.1395 27.3896 18.3024C27.4366 18.3549 27.5018 18.3845 27.5699 18.3889C27.0976 17.923 27.9416 17.1972 27.9635 17.1785C27.886 17.2165 27.7211 17.3222 27.6578 17.3636C27.633 17.3799 27.6063 17.3937 27.5779 17.4021C27.2201 17.5114 27.1349 16.7921 27.9014 16.1041C27.8494 16.1488 27.7615 16.202 27.6982 16.2386C27.6265 16.2798 27.5458 16.3041 27.463 16.3043C26.9447 16.306 27.0622 15.4541 28.3494 14.9021C28.1927 14.6582 27.9963 14.4601 27.77 14.2959Z" fill="#EAB783"/>
<path d="M18.7853 25.1787L18.5347 25.2775C18.1762 25.4188 17.8057 25.5285 17.4268 25.5976C17.4242 25.5981 17.4215 25.5986 17.4189 25.5991C17.3767 25.6068 17.3344 25.6142 17.292 25.6212C17.2496 25.6284 17.2073 25.6354 17.1649 25.6422C17.1223 25.6487 17.0799 25.6552 17.0373 25.6614C16.9947 25.6677 16.9521 25.6737 16.9092 25.6792C16.8666 25.685 16.8238 25.6906 16.7809 25.6958C16.6993 25.7057 16.6175 25.7149 16.5354 25.7233C16.526 25.724 16.5168 25.725 16.5075 25.7259C16.4694 25.7298 16.4314 25.7334 16.3936 25.7365C16.3613 25.7394 16.3291 25.7423 16.2968 25.7447C16.2335 25.7498 16.1699 25.7543 16.1064 25.7584C16.083 25.7599 16.0597 25.7613 16.0363 25.7625C16.018 25.7637 15.9995 25.7647 15.9812 25.7657C15.9769 25.7659 15.9728 25.7661 15.9687 25.7664C15.9364 25.7681 15.9039 25.7695 15.8712 25.771C15.8286 25.7729 15.7857 25.7746 15.7429 25.776H15.7398C15.6979 25.7775 15.6557 25.7787 15.6136 25.7794C15.6035 25.7796 15.5934 25.7799 15.5833 25.7801C15.5474 25.7808 15.5115 25.7813 15.4754 25.7818C15.4314 25.7823 15.3871 25.7825 15.3428 25.7825C15.0132 25.7825 14.6798 25.7693 14.343 25.7428C14.343 25.7428 14.343 25.7428 14.3428 25.7426C14.3471 25.4732 14.3623 25.2064 14.388 24.9489C14.4501 24.321 14.5744 23.7471 14.7542 23.3159C14.9316 22.8906 15.1632 22.6046 15.4429 22.5432C15.4439 22.543 15.4444 22.543 15.4444 22.543C16.3348 22.4551 17.1348 22.2452 17.1348 22.2452L18.2547 21.9606C18.4783 21.9038 18.7003 21.9842 18.8387 22.14C18.935 22.2476 18.9911 22.3913 18.9805 22.5504C18.9651 22.7851 18.8329 23.0251 18.5811 23.1583C18.6717 23.1588 18.7513 23.1742 18.8202 23.2016C19.3118 23.3959 19.253 24.1881 18.7191 24.3954C19.2988 24.4708 19.1565 24.9886 18.7853 25.1787Z" fill="#F2D3B8"/>
<path d="M17.8725 24.3241C17.659 24.1376 17.5935 23.8826 17.6255 23.5827C17.6299 23.5413 17.6118 23.5013 17.5786 23.4763C17.3605 23.3114 17.3099 23.0904 17.3848 22.8277C17.3944 22.7943 17.3624 22.7637 17.3294 22.7748C17.2945 22.7866 17.2688 22.8162 17.2618 22.8523C17.216 23.0961 17.1722 23.3398 17.4813 23.534C17.5105 23.5523 17.5251 23.587 17.517 23.6207C17.438 23.9411 17.5006 24.2016 17.7642 24.3776C17.7936 24.3973 17.8311 24.4 17.8636 24.386C17.8884 24.3752 17.893 24.3419 17.8725 24.3241Z" fill="#EAB783"/>
<path d="M24.0411 22.2678L23.9304 21.4223C23.9142 21.2995 24.0185 21.1948 24.1412 21.2104C24.6249 21.2721 25.3721 21.1303 25.8461 20.7617L25.9566 21.5208C26.0158 22.087 24.8553 22.6127 24.2517 22.4945C24.1403 22.4726 24.0558 22.3807 24.0411 22.2678Z" fill="#C86AD8"/>
<path d="M25.3687 17.4788C24.9313 17.9041 24.3153 18.1405 23.7108 18.0674C23.5786 18.0515 23.4753 17.9453 23.4582 17.8134L23.3576 17.0442C23.3449 16.9463 23.438 16.8702 23.5326 16.8991C23.9672 17.0317 24.8413 16.855 25.2332 16.5469L25.3687 17.4788Z" fill="#C86AD8"/>
<path d="M18.7853 25.1783L18.5347 25.277C18.1762 25.4183 17.8057 25.5281 17.4268 25.5972C17.4242 25.5977 17.4215 25.5982 17.4189 25.5986C17.3767 25.6063 17.3344 25.6138 17.292 25.6208C17.2496 25.628 17.2073 25.635 17.1649 25.6417C17.1223 25.6482 17.0799 25.6547 17.0373 25.661C16.9947 25.6673 16.9521 25.6733 16.9092 25.6788C16.8666 25.6846 16.8238 25.6901 16.7809 25.6954C16.6993 25.7053 16.6175 25.7144 16.5354 25.7229C16.526 25.7236 16.5168 25.7246 16.5075 25.7255C16.4694 25.7294 16.4314 25.733 16.3936 25.7361C16.3613 25.739 16.3291 25.7419 16.2968 25.7443C16.2335 25.7493 16.1699 25.7539 16.1064 25.758C16.083 25.7595 16.0597 25.7609 16.0363 25.7621C16.018 25.7633 15.9995 25.7643 15.9812 25.7652C15.9769 25.7655 15.9728 25.7657 15.9687 25.766C15.9364 25.7676 15.9039 25.7691 15.8712 25.7705C15.8286 25.7725 15.7857 25.7741 15.7429 25.7756H15.7398C15.6979 25.777 15.6557 25.7782 15.6136 25.779C15.6035 25.7792 15.5934 25.7794 15.5833 25.7797C15.5474 25.7804 15.5115 25.7809 15.4754 25.7814C15.4314 25.7818 15.3871 25.7821 15.3428 25.7821C15.0132 25.7821 14.6798 25.7688 14.343 25.7424C14.343 25.7424 14.343 25.7424 14.3428 25.7421C14.3471 25.4727 14.3623 25.206 14.388 24.9484C15.0852 24.9958 17.1038 25.1071 17.9947 24.8779C19.0809 24.5982 18.4413 24.3088 18.4413 24.3088C18.4413 24.3088 19.3183 23.8798 18.8202 23.2012C19.3118 23.3954 19.253 24.1877 18.7191 24.395C19.2988 24.4703 19.1565 24.9881 18.7853 25.1783Z" fill="#EAB783"/>
<path d="M17.7824 14.5565C17.177 15.2859 16.2521 15.5093 15.5677 15.5666C15.3493 15.5849 15.1553 15.5864 15.0041 15.5818C14.8341 15.5768 14.6661 15.5493 14.5029 15.5016C14.2985 15.4419 13.9102 15.3558 13.3613 15.3497C13.4116 15.3449 14.0233 15.2903 14.3524 15.35C14.6955 15.4121 16.6153 15.5308 17.5282 14.2373C17.5696 14.2412 17.6088 14.244 17.6457 14.246C17.8014 14.2546 17.8818 14.4366 17.7824 14.5565Z" fill="#EAC5ED"/>
<path d="M18.9801 22.5501C18.9647 22.7848 18.8325 23.0248 18.5807 23.158L18.2882 23.2215C18.2485 23.2302 18.2278 23.1755 18.2634 23.1558C18.9346 22.7846 18.8246 22.1416 18.8246 22.1416L18.8383 22.1396C18.9346 22.2473 18.9907 22.391 18.9801 22.5501Z" fill="#CC8DCC"/>
</svg>
