<svg width="31" height="27" viewBox="0 0 31 27" fill="none" xmlns="http://www.w3.org/2000/svg">
<path d="M27.4076 14.0002C27.4076 19.9793 23.1789 24.9707 17.5488 26.1465C16.726 26.3183 15.8731 26.4086 14.9992 26.4086C11.9494 26.4086 9.15637 25.3082 6.99578 23.4825C6.43486 23.009 5.91656 22.4863 5.44761 21.9213C5.18642 21.6067 4.94039 21.2788 4.71097 20.9389C3.37248 18.9584 2.59082 16.5705 2.59082 14.0002C2.59082 7.14722 8.14625 1.5918 14.9992 1.5918C21.8522 1.5918 27.4076 7.14722 27.4076 14.0002Z" fill="#1F207E"/>
<path d="M26.3457 17.1109C28.4911 17.1109 30.2304 14.9649 30.2304 12.3177C30.2304 9.67043 28.4911 7.52441 26.3457 7.52441C24.2002 7.52441 22.4609 9.67043 22.4609 12.3177C22.4609 14.9649 24.2002 17.1109 26.3457 17.1109Z" fill="#1F207E"/>
<path d="M29.2787 12.0616C29.1186 9.92007 27.8331 8.27032 26.4072 8.37696C26.3316 8.3825 26.2573 8.39333 26.1841 8.4085L24.3759 8.66368C22.5644 8.89984 23.1065 14.8335 24.5803 16.0672C24.7717 16.2273 25.0216 16.2998 25.27 16.2786L26.9864 16.1325C28.4125 16.0256 29.4388 14.2032 29.2787 12.0616Z" fill="#7188F7"/>
<path d="M23.3324 18.1169C23.2229 16.1065 22.7547 14.3711 22.1492 13.4613C21.8509 13.0129 21.5194 12.7647 21.181 12.7832C21.0197 12.7921 20.8666 12.8607 20.7236 12.9823C20.7233 12.9895 20.7229 12.997 20.7226 13.0044C19.9718 13.6794 19.5096 15.8174 19.6458 18.3191C19.8093 21.3208 20.809 22.9848 21.8336 22.9289C21.8329 22.9285 21.8322 22.9277 21.8317 22.9273C22.8437 22.8473 23.4947 21.097 23.3324 18.1169Z" fill="#060838"/>
<path d="M21.8338 22.929C21.8338 22.929 18.542 23.4293 16.5557 21.9059C16.5557 21.9059 16.3862 19.7975 15.6948 18.5761C15.6014 18.4109 15.4982 18.2619 15.3848 18.1365L15.5412 16.3303C17.231 15.9347 18.9175 14.961 19.1756 13.3437L19.2738 13.0921L20.7633 12.6504C20.7633 12.6504 20.757 12.7696 20.7478 12.9824C20.0805 13.5488 19.6344 15.2614 19.6224 17.3671C19.6207 17.6767 19.6284 17.9949 19.646 18.3192C19.6629 18.6283 19.6886 18.923 19.7223 19.2032C20.0155 21.6452 20.9147 22.9791 21.8338 22.929Z" fill="#352FB6"/>
<path d="M21.8333 22.9291C21.8333 22.9291 18.5415 23.4294 16.5552 21.906C16.5552 21.906 16.3857 19.7976 15.6943 18.5762L16.2179 17.8292C16.2179 17.8292 18.0076 18.4021 19.6219 17.3672C19.6202 17.6768 19.6279 17.995 19.6455 18.3193C19.6624 18.6284 19.6881 18.9231 19.7218 19.2033C20.015 21.6453 20.9142 22.9792 21.8333 22.9291Z" fill="#232496"/>
<path d="M22.2994 14.6219C22.2994 16.0839 21.7139 17.4089 20.7647 18.3757C20.4537 18.6925 20.1037 18.971 19.7221 19.2031C19.6884 18.9229 19.6626 18.6282 19.6458 18.3191C19.5081 15.7897 19.9821 13.632 20.7476 12.9823C20.8906 12.8607 21.0437 12.7921 21.205 12.7832C21.5435 12.7647 21.875 13.0129 22.1733 13.4613C22.2558 13.835 22.2994 14.2233 22.2994 14.6219Z" fill="#F2D3B8"/>
<path d="M21.7748 14.2396C21.7748 13.841 21.7313 13.4527 21.6487 13.0791C21.5839 12.9818 21.5177 12.8939 21.4503 12.8162C21.3692 12.7902 21.2874 12.7786 21.205 12.7832C21.0437 12.7921 20.8906 12.8607 20.7476 12.9823C19.9821 13.632 19.5081 15.7897 19.6458 18.3191C19.6492 18.3822 19.6533 18.4445 19.6576 18.5064C19.8639 18.3492 20.0589 18.1781 20.2404 17.9934C21.1894 17.0266 21.7748 15.7016 21.7748 14.2396Z" fill="#EAB783"/>
<path d="M0.539305 13.2611C0.539305 13.2611 -0.00306901 14.862 1.46541 15.3913C2.93413 15.9205 5.91105 15.0209 5.91105 15.0209L15.4071 12.1901C15.5609 12.1443 15.7157 12.1027 15.8719 12.0656C16.5245 11.9106 18.6187 11.3523 19.2747 10.4296C20.0554 9.33134 20.4391 8.49792 20.0486 8.01477C19.7761 7.67774 17.5737 7.95049 16.2677 8.14621C15.6355 8.24082 14.9966 8.27982 14.3577 8.2608C12.2426 8.19821 7.12965 8.20422 4.66766 9.56943C1.51837 11.3162 0.539305 13.2611 0.539305 13.2611Z" fill="#060838"/>
<path d="M17.5528 26.1461L17.5485 26.1473C16.7257 26.3192 15.8727 26.4094 14.9989 26.4094C12.7942 26.4094 10.7242 25.8346 8.92997 24.8266C8.78673 24.746 8.64518 24.6627 8.50555 24.5765C8.14999 24.3579 7.80646 24.1218 7.47569 23.869C7.39481 23.8076 7.31488 23.745 7.23568 23.6814C7.01421 23.5038 6.79923 23.3187 6.59075 23.1263C6.18343 22.751 5.80139 22.3487 5.44727 21.9222C5.6697 20.9409 6.12036 19.6318 7.00867 18.8916C7.75254 18.2717 9.50725 17.8352 11.2364 17.6019C12.3816 17.4474 13.5155 17.3819 14.3369 17.411C15.079 17.4375 15.7642 17.8229 16.1657 18.4481C16.8829 19.5642 17.8371 21.8885 17.5528 26.1461Z" fill="#352FB6"/>
<path d="M8.04102 19.2037L6.99575 23.483C6.43484 23.0095 5.91653 22.4868 5.44758 21.9218C5.18639 21.6072 4.94036 21.2793 4.71094 20.9394C4.93338 18.8002 6.02198 17.404 6.02198 17.404L7.50514 16.8975L8.04102 19.2037Z" fill="#232496"/>
<path d="M14.1888 18.0972L12.7829 17.7003L11.2364 17.6016C9.50725 17.8348 7.75254 18.2713 7.00867 18.8912C6.12036 19.6314 5.6697 20.9405 5.44727 21.9218C5.80139 22.3484 6.18367 22.7504 6.59075 23.1259C6.60544 23.1394 6.62109 23.1517 6.63048 23.1712C6.64035 23.1917 6.65888 23.2063 6.67934 23.2164C6.70775 23.2304 6.72918 23.2518 6.75205 23.2721C6.79803 23.313 6.84449 23.3534 6.89095 23.3936C6.90804 23.4086 6.92561 23.4232 6.94271 23.4379C6.97424 23.4649 7.00602 23.4916 7.0378 23.5183C7.05585 23.5335 7.07367 23.5484 7.09172 23.5633C7.13939 23.6028 7.18729 23.6421 7.23544 23.6808C7.76626 24.1069 8.33271 24.4904 8.92973 24.826C8.95164 24.326 8.9266 23.8096 8.8811 23.3327C8.86642 23.1782 8.95645 23.0328 9.10185 22.9779C9.43912 22.8508 9.72175 22.6139 9.91409 22.3094C10.0845 22.0395 10.2737 21.8317 10.4464 21.676C10.6936 21.4528 10.9993 21.3026 11.327 21.2424C11.9615 21.1262 12.4302 20.8967 12.6476 20.774C12.6833 20.754 12.7213 20.7954 12.6991 20.8293C12.6356 20.9268 12.5708 21.0125 12.5135 21.0828C12.4526 21.1574 12.5162 21.2684 12.6113 21.2525C14.2203 20.9807 15.2856 19.7417 15.2856 19.7417L14.1888 18.0972Z" fill="#232496"/>
<path d="M7.47559 23.8689C7.65421 23.3831 7.8025 22.7539 7.77939 22.0333C7.7753 21.9043 7.95609 21.8708 7.9975 21.9931C8.19225 22.569 8.42047 23.4477 8.50545 24.5765C8.14988 24.3579 7.80635 24.1217 7.47559 23.8689Z" fill="#352FB6"/>
<path d="M16.8729 11.1787C16.8729 11.1787 17.8098 11.2102 17.7745 12.3658C17.7489 13.2028 17.2188 13.4845 16.9288 13.5762C16.826 13.6087 16.7162 13.5552 16.6796 13.4539C16.5024 12.9621 16.0623 11.5172 16.8729 11.1787Z" fill="#F2D3B8"/>
<path d="M16.7378 11.626C16.7378 11.626 17.4065 11.6486 17.3815 12.4734C17.3632 13.0709 16.985 13.2719 16.7777 13.3374C16.7043 13.3605 16.6261 13.3224 16.5998 13.25C16.4732 12.899 16.159 11.8674 16.7378 11.626Z" fill="#EAB783"/>
<path d="M16.7212 14.5969C16.7212 14.5969 16.7826 14.7712 16.8278 15.0837C16.8495 15.2327 16.8673 15.4132 16.8733 15.6212C16.8926 16.3042 16.7816 17.2835 16.2424 18.4207C15.6634 19.6415 14.7031 20.2888 13.9597 20.6237C13.7809 20.7043 13.6145 20.7669 13.4691 20.8148C13.2917 20.8733 13.1434 20.6718 13.2517 20.5197C13.6102 20.0163 13.8264 19.5226 13.9272 19.2611C13.9373 19.2344 13.902 19.2149 13.8849 19.2378C13.4836 19.7763 12.5096 20.5093 11.1376 20.8553C10.1253 21.1107 9.57548 21.6531 9.32103 21.9875C9.32103 21.9875 9.32103 21.9875 9.32078 21.9877C9.2334 22.1025 9.09498 22.155 8.96113 22.1382C8.89902 22.1302 8.83787 22.1073 8.78298 22.0686C7.92092 21.4588 7.89492 20.407 7.91754 20.0202C7.92067 19.9658 7.85832 19.933 7.81523 19.9665C6.9965 20.6071 6.21555 20.6247 5.76345 20.556C5.59374 20.5303 5.52152 20.329 5.63322 20.1988C6.32581 19.3914 6.191 18.1319 6.13274 17.7628C6.1272 17.7269 6.08026 17.718 6.06148 17.7488C5.84386 18.1039 5.53524 18.3827 5.31569 18.5536C5.15873 18.6757 4.92955 18.6165 4.84794 18.4354C4.56412 17.8059 4.74635 16.9289 4.80822 16.6778C4.814 16.6542 4.78728 16.6364 4.76754 16.6504C4.16305 17.0741 3.68327 17.1427 3.34672 17.0981C3.08841 17.064 2.99068 16.7407 3.18302 16.5649C3.38452 16.3808 3.61996 16.1078 3.86984 15.686C4.2254 15.0854 4.45867 14.4212 4.57447 13.7332C4.91631 11.703 5.97843 9.50587 5.97843 9.50587C6.1597 9.27934 6.37877 9.15102 6.59808 9.08242C7.13227 8.91559 7.66887 9.10504 7.66887 9.10504C6.77839 11.0254 7.96232 11.9693 8.36555 12.223C8.43897 12.2693 8.47629 12.3559 8.45944 12.4409C8.15948 13.9445 8.9852 14.492 9.32175 14.6492C9.39975 14.6857 9.48713 14.6975 9.57211 14.6824L15.8613 13.5649C16.3461 12.666 16.1678 11.8826 16.0563 11.5625C16.0197 11.4577 16.0233 11.3439 16.0625 11.2404C16.6016 9.81882 15.7571 8.96012 15.7571 8.96012C15.7571 8.96012 15.855 8.32964 16.1728 8.30171C16.3197 8.28896 16.5137 8.40499 16.7667 8.77235C17.4222 9.72446 17.0346 10.8157 16.8736 11.1782C16.837 11.2611 16.8324 11.3542 16.8594 11.4409C17.4261 13.2505 16.7212 14.5969 16.7212 14.5969Z" fill="#7188F7"/>
<path d="M16.8728 15.6215C16.4267 15.7207 15.9684 15.7542 15.5977 15.7604C15.2084 15.7672 14.8203 15.7111 14.4503 15.59C14.036 15.4542 13.5273 15.3541 13.5273 15.3541L16.8273 15.084C16.849 15.233 16.8668 15.4135 16.8728 15.6215Z" fill="#537FE2"/>
<path d="M8.96113 22.1388C8.89902 22.1308 8.83787 22.1079 8.78298 22.0692C7.92091 21.4594 7.89491 20.4076 7.91754 20.0208C7.92067 19.9664 7.85832 19.9336 7.81523 19.9671C6.99649 20.6077 6.21555 20.6253 5.76345 20.5566C5.59374 20.5309 5.52152 20.3296 5.63322 20.1994C6.32581 19.392 6.191 18.1325 6.13274 17.7634C6.1272 17.7275 6.08026 17.7186 6.06148 17.7494C5.84386 18.1045 5.53524 18.3833 5.31569 18.5542C5.15873 18.6763 4.92955 18.617 4.84794 18.436C4.56412 17.8065 4.74635 16.9295 4.80822 16.6784C4.814 16.6548 4.78728 16.637 4.76754 16.651C4.16305 17.0747 3.68327 17.1433 3.34672 17.0987C3.08841 17.0646 2.99068 16.7412 3.18302 16.5655C3.38452 16.3814 3.61996 16.1084 3.86984 15.6866C4.2254 15.086 4.45867 14.4218 4.57447 13.7338C4.91631 11.7036 5.97843 9.50646 5.97843 9.50646C6.1597 9.27993 6.37877 9.15162 6.59808 9.08301C5.60698 11.6261 6.88166 14.3664 7.0757 14.2008C6.37396 15.0015 6.14454 15.9868 6.07352 16.4338C6.05715 16.5371 6.16957 16.6113 6.2584 16.5561C6.8535 16.1868 7.34026 15.5583 7.34026 15.5583C7.52779 16.8864 7.32221 18.3961 7.22591 18.9798C7.20641 19.0971 7.31932 19.1938 7.4315 19.1551C8.34894 18.8402 8.8918 18.1411 8.90985 18.1178C8.32848 19.1587 8.62819 21.0018 8.73411 21.6014C8.73411 21.6014 8.78924 21.9659 8.96113 22.1388Z" fill="#537FE2"/>
<path d="M7.72178 14.7772C7.72804 14.8369 7.70012 14.8949 7.65029 14.925C7.37753 15.0909 6.47358 15.5617 5.97116 14.8665C5.39485 14.0692 5.4897 12.9989 6.30097 12.3532C6.35152 12.313 6.4235 12.3183 6.46997 12.3645C6.50246 12.3968 6.54363 12.4387 6.59081 12.4895C6.90497 12.8287 7.49429 13.567 7.68014 14.5032C7.69795 14.593 7.71191 14.6843 7.72178 14.7772Z" fill="#F2D3B8"/>
<path d="M7.68033 14.503C7.68082 14.5471 7.65963 14.5875 7.62472 14.6099C7.41288 14.7435 6.71066 15.1222 6.31513 14.5533C5.86135 13.9004 5.92972 13.0285 6.55899 12.5066C6.56886 12.4984 6.5797 12.4926 6.59125 12.4893C6.90517 12.8287 7.49449 13.567 7.68033 14.503Z" fill="#EAB783"/>
<path d="M16.3303 11.6013C16.752 13.0151 15.9403 14.2005 15.9403 14.2005C15.8317 14.0667 15.7207 13.9509 15.6083 13.8507C14.3656 12.745 12.9634 13.5854 12.9634 13.5854C11.8666 13.0144 10.8001 13.7835 10.1494 14.4485C9.75244 14.8543 9.51002 15.2212 9.51002 15.2212C8.2399 14.9689 8.04924 13.5045 8.02397 12.9287C8.01747 12.7828 7.95174 12.6458 7.84317 12.5481C6.37349 11.2226 7.12843 9.14364 7.12843 9.14364C7.66334 8.86246 9.11449 8.69587 10.4019 8.66819C11.2163 8.65061 11.9653 8.68889 12.376 8.7888C13.167 8.98138 14.9063 8.82009 15.7378 8.72596C16.0204 8.69395 16.1983 8.66963 16.1983 8.66963C16.8079 9.68023 16.4841 10.8685 16.3375 11.2871C16.3019 11.3885 16.2994 11.4985 16.3303 11.6013Z" fill="#F2D3B8"/>
<path d="M11.6381 9.06951L11.4763 8.68073L10.3767 8.69397L10.4019 8.66797C9.11449 8.69565 7.66334 8.86224 7.12843 9.14342C7.12843 9.14342 6.37349 11.2224 7.84317 12.5479C7.95174 12.6456 8.01747 12.7826 8.02397 12.9285C8.04924 13.5043 8.2399 14.9687 9.51002 15.221C9.51002 15.221 9.75244 14.8541 10.1494 14.4482L9.81431 14.3589C8.63808 14.0123 8.73726 12.9179 8.82826 12.481C8.85281 12.3635 8.8285 12.2407 8.76061 12.1418C7.87351 10.8485 8.67972 9.90895 9.37159 9.40173C9.37135 9.40173 10.0353 8.927 11.6381 9.06951Z" fill="#EAB783"/>
<path d="M11.3241 10.3698C11.3349 10.3503 11.3342 10.3265 11.325 10.306C11.266 10.1755 10.961 9.56093 10.4095 9.49015C9.97282 9.41745 8.98726 9.86714 8.69597 10.4295C8.50386 10.8007 8.55682 11.3481 8.63025 11.736C8.65625 11.8739 8.84161 11.9028 8.9083 11.7793C9.18875 11.2581 9.80286 10.3931 10.78 10.4163C10.78 10.4163 11.0446 10.4384 10.9873 10.2444C10.987 10.2444 11.2615 10.4815 11.3241 10.3698Z" fill="#537FE2"/>
<path d="M13.3741 10.1842C13.3601 10.1697 13.3551 10.1488 13.3584 10.1291C13.3791 10.0022 13.5005 9.3977 13.9624 9.20752C14.3243 9.04238 15.2843 9.20271 15.6683 9.62255C15.9218 9.89987 16.0034 10.3869 16.0303 10.7408C16.04 10.8667 15.8859 10.935 15.7992 10.8431C15.4343 10.4564 14.6996 9.84932 13.8572 10.0973C13.8572 10.0973 13.6329 10.1782 13.6372 9.99641C13.637 9.99641 13.4545 10.2663 13.3741 10.1842Z" fill="#537FE2"/>
<path d="M11.2734 16.1355C11.2734 16.1355 11.6085 17.2645 13.2845 17.1059C14.9605 16.947 14.696 15.4123 14.696 15.4123C14.696 15.4123 13.0464 14.2301 11.2734 16.1355Z" fill="#1C0808"/>
<path d="M13.9469 16.5855C13.9861 16.5562 13.9924 16.4998 13.9626 16.4608C13.7223 16.1479 13.2579 15.9355 12.7242 15.9355C12.3166 15.9355 11.9495 16.0593 11.6917 16.2569C11.6604 16.2808 11.6537 16.3258 11.677 16.3576C11.9137 16.6787 12.3843 16.8978 12.9264 16.8978C13.3277 16.8978 13.6898 16.7779 13.9469 16.5855Z" fill="#E2A6AA"/>
<path d="M20.0477 8.01371C20.0344 7.99181 19.7846 7.64347 17.6863 8.47111C17.0968 8.72797 16.3512 8.89047 15.5464 8.98724C15.5464 8.98724 15.5452 8.98724 15.5431 8.98748C13.8259 9.19403 11.8399 9.10256 10.5259 8.99639C8.72836 8.85099 6.91804 9.10569 5.24085 9.76819C3.6313 10.404 1.83566 11.4719 0.539062 13.2603C0.56434 13.2133 2.18617 10.2082 4.7264 9.02672C5.60845 8.01323 6.15419 6.87673 6.16117 5.54354C6.16238 5.33266 5.97292 5.17088 5.7654 5.20988C5.3966 5.27921 4.80752 5.4511 4.20376 5.87792C3.70905 6.22747 3.27693 6.25804 2.96783 6.20075C2.65608 6.14321 2.46975 5.82544 2.5723 5.52549C3.14742 3.84227 6.01336 1.1682 9.15085 0.504491C9.4691 0.437085 9.78976 0.403141 10.1078 0.401456C11.408 0.393511 12.6692 0.92096 13.569 1.89858C14.4244 2.82782 15.2872 4.14463 15.8825 5.67931C15.9535 5.86203 15.9774 6.27128 16.0106 6.36733C16.0968 6.61866 16.0546 6.54644 16.2559 6.71977C16.661 7.06859 17.4571 7.56137 18.7716 7.63383C18.8166 7.63624 18.8614 7.63696 18.9064 7.63696C19.1211 7.63769 19.8934 7.66417 20.0477 8.01371Z" fill="#352FB6"/>
<path d="M15.5407 8.98764C13.824 9.19395 11.8391 9.10247 10.5259 8.9963C8.72836 8.8509 6.91804 9.1056 5.24084 9.7681C3.63129 10.4039 1.83566 11.4718 0.539062 13.2602C0.56434 13.2132 2.18617 10.2082 4.72639 9.02664C5.60844 8.01315 6.15419 6.87664 6.16117 5.54345C6.16141 5.51192 6.15732 5.48158 6.14961 5.4527C6.10532 5.28876 5.94186 5.17657 5.7654 5.20979C5.3966 5.27913 4.80752 5.45101 4.20376 5.87783C3.70905 6.22738 3.27693 6.25795 2.96783 6.20066C2.82195 6.17369 2.7035 6.08992 2.62936 5.9775C2.54486 5.84967 2.51766 5.685 2.5723 5.5254C3.14742 3.84218 6.01336 1.16811 9.15085 0.504402C9.4691 0.436997 9.78976 0.403052 10.1078 0.401367C9.68022 0.404497 9.44502 0.530883 9.31671 0.681101C9.14724 0.879948 9.16457 1.17774 9.34921 1.36262C11.1388 3.15224 11.4698 4.10699 11.3319 6.64505C11.1928 9.20887 15.3623 8.99775 15.5407 8.98764Z" fill="#232496"/>
<path d="M6.14916 5.4531C6.10487 5.28916 5.94141 5.17698 5.76495 5.2102C5.39615 5.27953 4.80707 5.45142 4.20331 5.87824C3.7086 6.22779 3.27648 6.25836 2.96738 6.20107C2.82149 6.1741 2.70305 6.09033 2.62891 5.9779C2.63902 5.91724 2.65635 5.85513 2.68187 5.79206C2.88216 5.29759 3.5059 4.86595 3.8918 4.63701C4.1619 4.47668 4.46475 4.37702 4.77842 4.35728C5.86534 4.28915 6.10102 5.16446 6.14916 5.4531Z" fill="#18184C"/>
<path d="M16.6867 7.03108C16.6867 7.03108 14.6887 6.8007 12.9149 6.78289C12.5887 6.77952 12.27 6.78337 11.9729 6.79709C11.5348 6.81755 11.1431 6.85944 10.8422 6.93166C9.22784 7.31972 4.72707 9.02653 4.72707 9.02653C4.72707 9.02653 4.64113 8.74005 4.67652 8.60765C4.71166 8.47525 4.88812 8.38714 4.88812 8.38714C4.88812 8.38714 4.95866 8.21959 5.13511 8.14015C5.31157 8.0607 8.92812 6.03637 10.529 5.62616C11.5083 5.37531 13.251 5.54479 14.4571 5.71402C14.4576 5.71402 14.4583 5.71427 14.4588 5.71427C15.2233 5.82187 15.772 5.92924 15.772 5.92924C15.772 5.92924 15.862 5.942 15.9689 5.98726L15.9698 5.98774C16.0182 6.0082 16.07 6.03541 16.1184 6.07103C16.2084 6.13675 16.2869 6.23184 16.311 6.36714C16.311 6.36714 16.732 6.50436 16.6867 7.03108Z" fill="#7188F7"/>
<path d="M11.8855 6.02C12.5249 6.0862 12.9149 6.27903 12.9149 6.27903C12.6436 6.30382 12.4026 6.34427 12.1963 6.38928C12.0435 6.42275 12.0543 6.64494 12.2098 6.66324C12.5935 6.70874 12.9149 6.78289 12.9149 6.78289C12.5887 6.77952 12.27 6.78337 11.9729 6.79709C11.5348 6.81755 11.1431 6.85944 10.8422 6.93166C9.22784 7.31972 4.72707 9.02653 4.72707 9.02653C4.72707 9.02653 4.64113 8.74005 4.67652 8.60765C4.71166 8.47525 4.88812 8.38714 4.88812 8.38714C4.88812 8.38714 4.95866 8.21959 5.13511 8.14015C5.31157 8.0607 8.92812 6.03637 10.529 5.62616C11.5083 5.37531 13.251 5.54479 14.4571 5.71402C13.3853 5.59414 12.4953 5.67599 11.8764 5.78673C11.7418 5.8108 11.7498 6.00604 11.8855 6.02Z" fill="#537FE2"/>
<path d="M23.9905 2.71767H23.8271V2.55421C23.8271 2.40231 23.7041 2.2793 23.5522 2.2793C23.4003 2.2793 23.2772 2.40231 23.2772 2.55421V2.71767H23.1138C22.9619 2.71767 22.8389 2.84069 22.8389 2.99259C22.8389 3.1445 22.9619 3.26751 23.1138 3.26751H23.2772V3.43097C23.2772 3.58287 23.4003 3.70589 23.5522 3.70589C23.7041 3.70589 23.8271 3.58287 23.8271 3.43097V3.26751H23.9905C24.1424 3.26751 24.2655 3.1445 24.2655 2.99259C24.2655 2.84069 24.1424 2.71767 23.9905 2.71767Z" fill="#7188F7"/>
<path d="M21.9866 7.80654H21.8232V7.64308C21.8232 7.49118 21.7002 7.36816 21.5483 7.36816C21.3964 7.36816 21.2733 7.49118 21.2733 7.64308V7.80654H21.1099C20.958 7.80654 20.835 7.92956 20.835 8.08146C20.835 8.23336 20.958 8.35638 21.1099 8.35638H21.2733V8.51984C21.2733 8.67174 21.3964 8.79475 21.5483 8.79475C21.7002 8.79475 21.8232 8.67174 21.8232 8.51984V8.35638H21.9866C22.1385 8.35638 22.2616 8.23336 22.2616 8.08146C22.2613 7.92956 22.1383 7.80654 21.9866 7.80654Z" fill="#7188F7"/>
<path d="M16.3439 3.82773C16.2337 3.64982 16.0847 3.52657 15.9092 3.44063C16.0623 3.32242 16.1879 3.17365 16.2963 3.00586C16.414 3.16595 16.5584 3.29546 16.731 3.39296C16.5666 3.5102 16.4378 3.65536 16.3439 3.82773Z" fill="white"/>
<path d="M22.8576 6.53378C22.7474 6.35588 22.5983 6.23262 22.4229 6.14668C22.576 6.02848 22.7016 5.87971 22.81 5.71191C22.9277 5.872 23.0721 6.00152 23.2447 6.09902C23.0803 6.21625 22.9515 6.36142 22.8576 6.53378Z" fill="white"/>
<path d="M24.8395 4.50209C24.879 4.32127 24.7644 4.14269 24.5836 4.10321C24.4028 4.06374 24.2242 4.17832 24.1848 4.35913C24.1453 4.53995 24.2599 4.71853 24.4407 4.758C24.6215 4.79748 24.8001 4.6829 24.8395 4.50209Z" fill="#C3BEEA"/>
<path d="M20.5384 6.35659C20.5384 6.54171 20.3884 6.69169 20.2033 6.69169C20.0181 6.69169 19.8682 6.54171 19.8682 6.35659C19.8682 6.17146 20.0181 6.02148 20.2033 6.02148C20.3884 6.02148 20.5384 6.17146 20.5384 6.35659Z" fill="#C3BEEA"/>
<path d="M27.5307 9.29199L27.4775 9.29729C27.4951 9.29488 27.5129 9.29296 27.5307 9.29199Z" fill="#E2B1E5"/>
<path d="M18.4094 13.7336L18.4122 13.7534C18.4101 13.7468 18.4092 13.74 18.4092 13.7334L18.4094 13.7336Z" fill="#E2B1E5"/>
<path d="M18.1719 10.6094L18.1401 12.5145L18.1276 13.2606L17.7739 13.2298L17.4776 13.204L15.0392 12.9922C15.0392 12.9922 14.7802 12.7613 14.6129 12.3937C14.5238 12.1985 14.4607 11.9649 14.4759 11.7069C14.5199 10.9633 15.0392 10.6094 15.0392 10.6094H18.1719Z" fill="#3431A1"/>
<path d="M18.1395 12.5144L18.127 13.2604L17.7734 13.2296L15.0386 12.992C15.0386 12.992 14.7796 12.7612 14.6123 12.3936L14.8292 12.401L17.5625 12.4947L18.1395 12.5144Z" fill="#201E7A"/>
<path d="M18.1714 10.6094L18.1396 12.5145L18.1271 13.2606L17.7734 13.2298L17.4771 13.204C17.3854 12.9907 17.3187 12.7478 17.2773 12.4948C17.1675 11.8263 17.2344 11.0836 17.4925 10.6094H18.1714Z" fill="#201E7A"/>
<path d="M22.3523 10.1689L22.2734 12.6557L22.2288 14.059L21.9214 14.0294L21.6065 13.999L18.139 13.6639C18.0658 13.6567 17.9991 13.6184 17.9568 13.5585C17.8877 13.461 17.8263 13.35 17.7733 13.2294C17.6761 13.0099 17.6055 12.7578 17.5624 12.4944C17.4527 11.8259 17.5196 11.0833 17.7777 10.609C17.8068 10.5553 17.8386 10.505 17.8727 10.4585C17.9185 10.3964 17.9895 10.3582 18.0665 10.3548L19.3658 10.2985L19.7151 10.2833L20.0942 10.2669L21.2765 10.2156L21.7936 10.1933L22.1051 10.1798L22.3523 10.1689Z" fill="#3431A1"/>
<path d="M22.2734 12.6554L22.2289 14.0587L21.9215 14.0291L18.1391 13.6636C18.0659 13.6564 17.9992 13.6181 17.9568 13.5582C17.8877 13.4607 17.8263 13.3497 17.7734 13.2291C17.6761 13.0096 17.6056 12.7575 17.5625 12.4941L18.1395 12.5139L21.6454 12.634L22.2734 12.6554Z" fill="#201E7A"/>
<path d="M22.3528 10.1689L22.2739 12.6557L22.2293 14.059L21.9219 14.0294L21.607 13.999C21.4573 13.5708 21.3697 13.1035 21.3415 12.6343C21.2871 11.7409 21.446 10.8411 21.7941 10.1933L22.1056 10.1798L22.3528 10.1689Z" fill="#201E7A"/>
<path d="M27.53 9.29233C28.2246 9.5232 28.2181 15.3184 26.7891 15.4224C26.7891 15.4224 25.466 15.0295 25.7173 12.1142C25.9686 9.19893 27.53 9.29233 27.53 9.29233Z" fill="#201E7A"/>
<path d="M27.2922 12.4025C27.3885 11.0295 27.142 9.89371 26.7419 9.86568C26.3417 9.83764 25.9393 10.928 25.8431 12.301C25.7469 13.674 25.9933 14.8098 26.3935 14.8379C26.7937 14.8659 27.196 13.7756 27.2922 12.4025Z" fill="#060838"/>
<path d="M25.9691 12.7827C25.9532 13.8771 26.1966 14.9279 26.789 15.4226L25.3078 15.1886V15.1884L23.0353 14.8294V14.8292L22.3703 14.7242C22.2851 14.7108 22.2103 14.6597 22.1689 14.5841C22.073 14.4101 21.9907 14.224 21.9214 14.0297C21.7651 13.5933 21.6741 13.1149 21.6453 12.6347C21.5904 11.735 21.7519 10.8289 22.1051 10.1801C22.1563 10.0853 22.2119 9.99598 22.2716 9.91293C22.3193 9.84673 22.3925 9.80387 22.4736 9.79569L23.0586 9.73743L25.7746 9.46733L27.4768 9.29785C26.595 9.41726 25.9927 11.1484 25.9691 12.7827Z" fill="#3431A1"/>
<path d="M25.308 15.1887V15.1885L23.0355 14.8295V14.8293L22.3706 14.7243C22.2854 14.7109 22.2105 14.6598 22.1691 14.5842C22.0733 14.4102 21.991 14.2241 21.9216 14.0298C21.7654 13.5934 21.6744 13.115 21.6455 12.6348L22.2736 12.6562L25.9693 12.7828C25.9534 13.8772 26.1968 14.928 26.7893 15.4227L25.308 15.1887Z" fill="#201E7A"/>
<path d="M24.7849 12.7415C24.7789 13.741 24.976 14.6707 25.3082 15.1878L23.0357 14.8289V14.8287C22.5846 14.2285 22.3636 13.443 22.3145 12.657C22.2406 11.4767 22.5542 10.2949 23.059 9.7369L25.775 9.4668C25.0839 10.2757 24.7919 11.5576 24.7849 12.7415Z" fill="#423CBD"/>
<path d="M14.8295 12.4005C14.8798 12.5914 14.9499 12.7886 15.039 12.9915H14.3598C14.2814 12.8245 14.2173 12.6562 14.1689 12.4874C14.1593 12.454 14.1504 12.4203 14.142 12.3868C14.0055 11.8382 14.0385 11.2845 14.2903 10.7467C14.3531 10.6126 14.4598 10.5016 14.5958 10.4431C14.7804 10.3639 14.9708 10.3904 15.039 10.6088C14.7157 11.1054 14.6468 11.7118 14.8295 12.4005Z" fill="#423CBD"/>
<path d="M23.0357 14.8291V14.8289C22.5846 14.2287 22.3636 13.4432 22.3145 12.6572L24.7849 12.7417C24.7789 13.7413 24.976 14.671 25.3082 15.1881L23.0357 14.8291Z" fill="#3431A1"/>
<path d="M15.0386 12.9924H14.3595C14.281 12.8254 14.217 12.6571 14.1686 12.4883C14.1589 12.4549 14.15 12.4212 14.1416 12.3877L14.8291 12.4014C14.8795 12.5923 14.9495 12.7895 15.0386 12.9924Z" fill="#3431A1"/>
<path d="M27.0312 11.2624C27.0776 11.7431 27.0533 12.1387 26.977 12.1461C26.9007 12.1536 26.8015 11.7699 26.755 11.2891C26.7086 10.8084 26.7329 10.4128 26.8092 10.4054C26.8853 10.3982 26.9847 10.7819 27.0312 11.2624Z" fill="#DDD9F9"/>
<path d="M26.9781 12.9244C27.0415 12.9244 27.0929 12.7942 27.0929 12.6336C27.0929 12.473 27.0415 12.3428 26.9781 12.3428C26.9147 12.3428 26.8633 12.473 26.8633 12.6336C26.8633 12.7942 26.9147 12.9244 26.9781 12.9244Z" fill="#DDD9F9"/>
<path d="M20.8878 12.0403C20.8916 12.193 20.7672 12.3179 20.6148 12.3179H20.1049C19.9715 12.3179 19.8577 12.2211 19.837 12.0895C19.7789 11.7211 19.7267 10.9659 20.095 10.2671L21.2773 10.2158C21.2773 10.2158 20.8618 11.0377 20.8878 12.0403Z" fill="#423CBD"/>
<path d="M19.366 10.2984C19.1041 10.6992 19.112 11.3497 19.1337 11.6602C19.1371 11.7098 19.1595 11.7538 19.1934 11.7854C19.2271 11.8169 19.2729 11.8362 19.3224 11.8362C19.4322 11.8362 19.5194 11.743 19.5112 11.6337C19.4534 10.8732 19.7153 10.2832 19.7153 10.2832L19.366 10.2984Z" fill="#423CBD"/>
<path d="M20.2917 13.8694C19.8464 14.581 19.0291 14.2454 18.7777 13.8824C18.7587 13.855 18.7428 13.8271 18.731 13.7998L18.7308 13.7996C18.724 13.7847 18.7188 13.7698 18.7144 13.7551C18.6371 13.5062 18.6367 13.2182 18.6477 13.0348C18.6576 12.8701 18.7404 12.7158 18.8779 12.6248C18.9621 12.5692 19.043 12.5509 19.1162 12.554C19.3088 12.5632 19.4561 12.7271 19.4614 12.9197C19.478 13.582 19.8832 13.8398 19.8832 13.8398L20.2917 13.8694Z" fill="#F2D3B8"/>
<path d="M20.2913 13.8695C19.846 14.5811 19.0287 14.2455 18.7773 13.8825C18.9704 14.0618 19.701 14.1995 19.8826 13.8398L20.2913 13.8695Z" fill="#EAB783"/>
<path d="M21.979 10.1945L21.3712 10.2183C21.3144 10.8038 20.7549 11.1837 20.7549 11.1837C20.4114 11.4234 20.1482 11.4624 19.9528 11.3332C19.8909 11.2925 19.8623 11.2166 19.8791 11.1447L19.8818 11.1326C19.3974 11.3909 19.0589 11.4497 18.8711 11.3021C18.8054 11.2503 18.7826 11.1603 18.8093 11.0809C18.8189 11.0517 18.8232 11.0431 18.8232 11.0431C18.498 11.2388 18.2498 11.2648 18.0678 11.1442C18.0091 11.1052 17.9706 11.045 17.9566 10.9781C17.9487 10.941 17.9479 10.902 17.9554 10.8635C18.0791 10.2188 18.3386 9.76261 18.5108 9.51633C18.6143 9.36852 18.7934 9.29029 18.9708 9.3211C19.1884 9.35865 19.3372 9.45639 19.387 9.64128C19.3878 9.64007 19.3885 9.63887 19.3894 9.63767C19.4855 9.49539 19.647 9.40969 19.8189 9.40897C20.0787 9.40752 20.2941 9.5303 20.4323 9.70844C20.4335 9.70724 20.4347 9.70579 20.4357 9.70459C20.5474 9.58157 20.7183 9.52837 20.8801 9.56665C21.0291 9.60204 21.1673 9.64946 21.2958 9.70844C21.5599 9.82809 21.7843 9.99419 21.979 10.1945Z" fill="#F2D3B8"/>
<path d="M21.9795 10.1943L21.3716 10.2181C21.3148 10.8036 20.7553 11.1835 20.7553 11.1835C20.4118 11.4232 20.1487 11.4622 19.9532 11.333C19.8913 11.2923 19.8627 11.2164 19.8795 11.1445L19.8822 11.1324C19.3978 11.3907 19.0594 11.4495 18.8716 11.3019C18.8059 11.2502 18.783 11.1601 18.8097 11.0807C18.8193 11.0515 18.8237 11.0429 18.8237 11.0429C18.4984 11.2386 18.2502 11.2646 18.0683 11.144C18.0095 11.105 17.971 11.0448 17.957 10.9779C18.4854 11.3787 19.0832 10.4396 19.0986 10.4153C19.0721 10.4974 18.991 10.6758 18.9592 10.7441C18.9467 10.7711 18.9368 10.7995 18.9325 10.8289C18.8757 11.1986 19.5996 11.1799 20.1708 10.3231C20.134 10.3811 20.0938 10.4755 20.0666 10.5436C20.0363 10.6204 20.0235 10.7039 20.0351 10.7858C20.1075 11.299 20.934 11.0607 21.2963 9.70801C21.5603 9.82789 21.7847 9.994 21.9795 10.1943Z" fill="#EAB783"/>
<path d="M17.783 14.5564C17.1775 15.2858 16.2526 15.5092 15.5682 15.5665C15.3499 15.5848 15.1559 15.5863 15.0047 15.5817C14.8347 15.5767 14.6667 15.5492 14.5035 15.5015C14.2736 15.4344 13.8111 15.3337 13.1489 15.3516C12.9471 15.3602 12.7367 15.4233 12.5449 15.5044C12.314 15.6019 12.1099 15.7257 11.9787 15.8128C11.9719 15.8174 11.9652 15.8217 11.9587 15.826C11.8275 15.9146 11.6903 15.9946 11.5465 16.0612C10.0963 16.7336 8.63919 16.5285 7.87919 16.3383C7.71116 16.2962 7.69141 16.0673 7.84861 15.9943C9.30313 15.3205 10.0119 13.5025 11.204 12.9303C12.2228 12.3879 12.9902 13.0627 12.9902 13.0627C13.3542 12.7259 13.7163 12.5915 14.0653 12.5899C14.2623 12.5889 14.4546 12.6301 14.6407 12.7008L14.6412 12.7011C15.0487 12.8559 15.4255 13.1522 15.7488 13.457C15.8533 13.5554 15.9638 13.6474 16.0834 13.7268C16.6828 14.1245 17.2806 14.2259 17.6463 14.2459C17.802 14.2545 17.8824 14.4365 17.783 14.5564Z" fill="#7188F7"/>
<path d="M12.9902 13.0631C12.9902 13.0631 11.5422 12.5522 10.6587 14.1572C9.77497 15.7622 9.07371 16.04 9.07371 16.04C9.07371 16.04 10.2964 16.6004 11.9787 15.8132C11.8828 15.877 11.8258 15.9211 11.8258 15.9211C10.2865 16.7605 8.68805 16.5412 7.87919 16.3387C7.71116 16.2966 7.69141 16.0677 7.84861 15.9947C9.30313 15.3209 10.0119 13.5029 11.204 12.9307C12.2228 12.3883 12.9902 13.0631 12.9902 13.0631Z" fill="#537FE2"/>
<path d="M14.0656 12.5901C14.0656 12.5901 13.3143 12.8508 13.268 13.4199C13.268 13.4199 13.2151 13.1948 12.9902 13.0626C13.3542 12.7259 13.7163 12.5915 14.0654 12.5898L14.0656 12.5901Z" fill="#537FE2"/>
<path d="M9.59752 11.8053C9.63483 11.7993 9.66757 11.7949 9.702 11.7908C9.73618 11.7868 9.77013 11.7834 9.80431 11.7805C9.87244 11.7745 9.94057 11.7711 10.0092 11.7689C10.1459 11.7651 10.2836 11.7694 10.422 11.7819C10.5605 11.7935 10.6991 11.8185 10.8375 11.8518L10.9413 11.8799C10.976 11.8895 11.0099 11.9028 11.0443 11.9143L11.0958 11.9324C11.1129 11.9387 11.1298 11.9466 11.1466 11.9536L11.2482 11.9979L11.2641 12.007C11.3628 12.0638 11.3985 12.1919 11.3433 12.293C11.3173 12.3407 11.2754 12.3741 11.2285 12.3898C11.2037 12.398 11.1722 12.41 11.1435 12.4211C11.1141 12.4329 11.0848 12.4444 11.0554 12.4572C10.9967 12.482 10.9384 12.5085 10.8806 12.5366C10.7653 12.5927 10.6527 12.6544 10.5441 12.722C10.4365 12.7906 10.3332 12.8652 10.2369 12.9476C10.1428 13.0313 10.0566 13.1226 9.9839 13.2232L9.98077 13.2273C9.94345 13.2791 9.8722 13.2897 9.82164 13.2511C9.77494 13.2155 9.76218 13.1505 9.78986 13.1C9.86112 12.9697 9.94851 12.8518 10.0441 12.7432C10.1413 12.6368 10.2461 12.5398 10.3556 12.4493C10.4656 12.3599 10.5802 12.2776 10.6982 12.2011C10.7571 12.1625 10.8171 12.1257 10.8782 12.0906C10.9086 12.0727 10.9396 12.0557 10.9707 12.0383C11.0027 12.0212 11.0321 12.0053 11.0691 11.9875L11.0491 12.3794L10.9731 12.3349C10.9603 12.3277 10.948 12.3195 10.9348 12.3128L10.8946 12.2933C10.8676 12.2805 10.8414 12.2661 10.8135 12.2545L10.7292 12.2201C10.6151 12.1777 10.4969 12.1401 10.3744 12.1146C10.2523 12.0882 10.1274 12.0687 10.0012 12.0564C9.93816 12.0506 9.87484 12.046 9.81153 12.0436C9.77975 12.0424 9.74822 12.0414 9.71668 12.0414C9.68563 12.0412 9.65265 12.0417 9.62448 12.0424L9.61943 12.0427C9.55515 12.0446 9.50147 11.9928 9.49906 11.9269C9.49761 11.866 9.54046 11.8144 9.59752 11.8053Z" fill="#1C0808"/>
</svg>
