<svg width="16" height="17" viewBox="0 0 16 17" fill="none" xmlns="http://www.w3.org/2000/svg">
<g clip-path="url(#clip0_1203_57034)">
<path d="M6.66667 5.83333H9.33333V4.83333C9.33333 4.37184 9.47018 3.92072 9.72657 3.537C9.98296 3.15329 10.3474 2.85422 10.7737 2.67762C11.2001 2.50101 11.6693 2.4548 12.1219 2.54484C12.5745 2.63487 12.9903 2.8571 13.3166 3.18342C13.6429 3.50974 13.8651 3.9255 13.9552 4.37812C14.0452 4.83075 13.999 5.2999 13.8224 5.72626C13.6458 6.15262 13.3467 6.51704 12.963 6.77343C12.5793 7.02982 12.1282 7.16667 11.6667 7.16667H10.6667V9.83333H11.6667C12.1282 9.83333 12.5793 9.97018 12.963 10.2266C13.3467 10.483 13.6458 10.8474 13.8224 11.2737C13.999 11.7001 14.0452 12.1693 13.9552 12.6219C13.8651 13.0745 13.6429 13.4903 13.3166 13.8166C12.9903 14.1429 12.5745 14.3651 12.1219 14.4552C11.6693 14.5452 11.2001 14.499 10.7737 14.3224C10.3474 14.1458 9.98296 13.8467 9.72657 13.463C9.47018 13.0793 9.33333 12.6282 9.33333 12.1667V11.1667H6.66667V12.1667C6.66667 12.6282 6.52982 13.0793 6.27343 13.463C6.01704 13.8467 5.65262 14.1458 5.22626 14.3224C4.7999 14.499 4.33075 14.5452 3.87812 14.4552C3.4255 14.3651 3.00974 14.1429 2.68342 13.8166C2.3571 13.4903 2.13487 13.0745 2.04484 12.6219C1.9548 12.1693 2.00101 11.7001 2.17762 11.2737C2.35422 10.8474 2.65329 10.483 3.037 10.2266C3.42072 9.97018 3.87184 9.83333 4.33333 9.83333H5.33333V7.16667H4.33333C3.87184 7.16667 3.42072 7.02982 3.037 6.77343C2.65329 6.51704 2.35422 6.15262 2.17762 5.72626C2.00101 5.2999 1.9548 4.83075 2.04484 4.37812C2.13487 3.9255 2.3571 3.50974 2.68342 3.18342C3.00974 2.8571 3.4255 2.63487 3.87812 2.54484C4.33075 2.4548 4.7999 2.50101 5.22626 2.67762C5.65262 2.85422 6.01704 3.15329 6.27343 3.537C6.52982 3.92072 6.66667 4.37184 6.66667 4.83333V5.83333ZM5.33333 5.83333V4.83333C5.33333 4.63555 5.27469 4.44221 5.1648 4.27776C5.05492 4.11332 4.89874 3.98514 4.71602 3.90945C4.53329 3.83377 4.33223 3.81396 4.13824 3.85255C3.94426 3.89113 3.76608 3.98638 3.62623 4.12623C3.48638 4.26608 3.39113 4.44426 3.35255 4.63824C3.31396 4.83223 3.33377 5.03329 3.40945 5.21602C3.48514 5.39874 3.61332 5.55492 3.77776 5.6648C3.94221 5.77469 4.13555 5.83333 4.33333 5.83333H5.33333ZM5.33333 11.1667H4.33333C4.13555 11.1667 3.94221 11.2253 3.77776 11.3352C3.61332 11.4451 3.48514 11.6013 3.40945 11.784C3.33377 11.9667 3.31396 12.1678 3.35255 12.3618C3.39113 12.5557 3.48638 12.7339 3.62623 12.8738C3.76608 13.0136 3.94426 13.1089 4.13824 13.1475C4.33223 13.186 4.53329 13.1662 4.71602 13.0905C4.89874 13.0149 5.05492 12.8867 5.1648 12.7222C5.27469 12.5578 5.33333 12.3644 5.33333 12.1667V11.1667ZM10.6667 5.83333H11.6667C11.8644 5.83333 12.0578 5.77469 12.2222 5.6648C12.3867 5.55492 12.5149 5.39874 12.5905 5.21602C12.6662 5.03329 12.686 4.83223 12.6475 4.63824C12.6089 4.44426 12.5136 4.26608 12.3738 4.12623C12.2339 3.98638 12.0557 3.89113 11.8618 3.85255C11.6678 3.81396 11.4667 3.83377 11.284 3.90945C11.1013 3.98514 10.9451 4.11332 10.8352 4.27776C10.7253 4.44221 10.6667 4.63555 10.6667 4.83333V5.83333ZM10.6667 11.1667V12.1667C10.6667 12.3644 10.7253 12.5578 10.8352 12.7222C10.9451 12.8867 11.1013 13.0149 11.284 13.0905C11.4667 13.1662 11.6678 13.186 11.8618 13.1475C12.0557 13.1089 12.2339 13.0136 12.3738 12.8738C12.5136 12.7339 12.6089 12.5557 12.6475 12.3618C12.686 12.1678 12.6662 11.9667 12.5905 11.784C12.5149 11.6013 12.3867 11.4451 12.2222 11.3352C12.0578 11.2253 11.8644 11.1667 11.6667 11.1667H10.6667ZM6.66667 7.16667V9.83333H9.33333V7.16667H6.66667Z" fill="white"/>
</g>
<defs>
<clipPath id="clip0_1203_57034">
<rect width="16" height="16" fill="white" transform="translate(0 0.5)"/>
</clipPath>
</defs>
</svg>
